<?xml version="1.0" encoding="UTF-8"?>
<!DOCTYPE svg PUBLIC "-//W3C//DTD SVG 1.1//EN" "http://www.w3.org/Graphics/SVG/1.1/DTD/svg11.dtd">
<svg xmlns="http://www.w3.org/2000/svg" version="1.1" width="400px" height="400px" style="shape-rendering:geometricPrecision; text-rendering:geometricPrecision; image-rendering:optimizeQuality; fill-rule:evenodd; clip-rule:evenodd" xmlns:xlink="http://www.w3.org/1999/xlink">
<g><path style="opacity:0.726" fill="#cecece" d="M 30.5,-0.5 C 30.8333,-0.5 31.1667,-0.5 31.5,-0.5C 31.5,9.83333 31.5,20.1667 31.5,30.5C 41.1667,30.5 50.8333,30.5 60.5,30.5C 60.5,20.1667 60.5,9.83333 60.5,-0.5C 61.1667,-0.5 61.8333,-0.5 62.5,-0.5C 62.5,9.83333 62.5,20.1667 62.5,30.5C 72.1667,30.5 81.8333,30.5 91.5,30.5C 91.5,20.1667 91.5,9.83333 91.5,-0.5C 92.1667,-0.5 92.8333,-0.5 93.5,-0.5C 93.5,9.83333 93.5,20.1667 93.5,30.5C 103.167,30.5 112.833,30.5 122.5,30.5C 122.5,20.1667 122.5,9.83333 122.5,-0.5C 122.833,-0.5 123.167,-0.5 123.5,-0.5C 123.5,9.83333 123.5,20.1667 123.5,30.5C 133.167,30.5 142.833,30.5 152.5,30.5C 153.167,30.5 153.833,30.5 154.5,30.5C 164.167,30.5 173.833,30.5 183.5,30.5C 183.5,20.1667 183.5,9.83333 183.5,-0.5C 184.167,-0.5 184.833,-0.5 185.5,-0.5C 185.5,9.83333 185.5,20.1667 185.5,30.5C 194.833,30.5 204.167,30.5 213.5,30.5C 213.5,20.1667 213.5,9.83333 213.5,-0.5C 214.167,-0.5 214.833,-0.5 215.5,-0.5C 215.5,9.83333 215.5,20.1667 215.5,30.5C 225.167,30.5 234.833,30.5 244.5,30.5C 245.167,30.5 245.833,30.5 246.5,30.5C 256.167,30.5 265.833,30.5 275.5,30.5C 275.5,20.1667 275.5,9.83333 275.5,-0.5C 275.833,-0.5 276.167,-0.5 276.5,-0.5C 276.5,9.83333 276.5,20.1667 276.5,30.5C 286.167,30.5 295.833,30.5 305.5,30.5C 305.5,20.1667 305.5,9.83333 305.5,-0.5C 306.167,-0.5 306.833,-0.5 307.5,-0.5C 307.5,9.83333 307.5,20.1667 307.5,30.5C 317.167,30.5 326.833,30.5 336.5,30.5C 336.5,20.1667 336.5,9.83333 336.5,-0.5C 337.167,-0.5 337.833,-0.5 338.5,-0.5C 338.5,9.83333 338.5,20.1667 338.5,30.5C 348.167,30.5 357.833,30.5 367.5,30.5C 367.5,20.1667 367.5,9.83333 367.5,-0.5C 367.833,-0.5 368.167,-0.5 368.5,-0.5C 368.5,9.83333 368.5,20.1667 368.5,30.5C 378.833,30.5 389.167,30.5 399.5,30.5C 399.5,30.8333 399.5,31.1667 399.5,31.5C 389.167,31.5 378.833,31.5 368.5,31.5C 368.5,41.1667 368.5,50.8333 368.5,60.5C 378.833,60.5 389.167,60.5 399.5,60.5C 399.5,61.1667 399.5,61.8333 399.5,62.5C 389.167,62.5 378.833,62.5 368.5,62.5C 368.5,72.1667 368.5,81.8333 368.5,91.5C 378.833,91.5 389.167,91.5 399.5,91.5C 399.5,92.1667 399.5,92.8333 399.5,93.5C 389.167,93.5 378.833,93.5 368.5,93.5C 368.5,103.167 368.5,112.833 368.5,122.5C 378.833,122.5 389.167,122.5 399.5,122.5C 399.5,122.833 399.5,123.167 399.5,123.5C 389.167,123.5 378.833,123.5 368.5,123.5C 368.5,133.167 368.5,142.833 368.5,152.5C 368.5,153.167 368.5,153.833 368.5,154.5C 368.5,164.167 368.5,173.833 368.5,183.5C 378.833,183.5 389.167,183.5 399.5,183.5C 399.5,184.167 399.5,184.833 399.5,185.5C 389.167,185.5 378.833,185.5 368.5,185.5C 368.5,194.833 368.5,204.167 368.5,213.5C 378.833,213.5 389.167,213.5 399.5,213.5C 399.5,214.167 399.5,214.833 399.5,215.5C 389.167,215.5 378.833,215.5 368.5,215.5C 368.5,225.167 368.5,234.833 368.5,244.5C 368.5,245.167 368.5,245.833 368.5,246.5C 368.5,256.167 368.5,265.833 368.5,275.5C 378.833,275.5 389.167,275.5 399.5,275.5C 399.5,275.833 399.5,276.167 399.5,276.5C 389.167,276.5 378.833,276.5 368.5,276.5C 368.5,286.167 368.5,295.833 368.5,305.5C 378.833,305.5 389.167,305.5 399.5,305.5C 399.5,306.167 399.5,306.833 399.5,307.5C 389.167,307.5 378.833,307.5 368.5,307.5C 368.5,317.167 368.5,326.833 368.5,336.5C 378.833,336.5 389.167,336.5 399.5,336.5C 399.5,337.167 399.5,337.833 399.5,338.5C 389.167,338.5 378.833,338.5 368.5,338.5C 368.5,348.167 368.5,357.833 368.5,367.5C 378.833,367.5 389.167,367.5 399.5,367.5C 399.5,367.833 399.5,368.167 399.5,368.5C 389.167,368.5 378.833,368.5 368.5,368.5C 368.5,378.833 368.5,389.167 368.5,399.5C 368.167,399.5 367.833,399.5 367.5,399.5C 367.5,389.167 367.5,378.833 367.5,368.5C 357.833,368.5 348.167,368.5 338.5,368.5C 338.5,378.833 338.5,389.167 338.5,399.5C 337.833,399.5 337.167,399.5 336.5,399.5C 336.5,389.167 336.5,378.833 336.5,368.5C 326.833,368.5 317.167,368.5 307.5,368.5C 307.5,378.833 307.5,389.167 307.5,399.5C 306.833,399.5 306.167,399.5 305.5,399.5C 305.5,389.167 305.5,378.833 305.5,368.5C 295.833,368.5 286.167,368.5 276.5,368.5C 276.5,378.833 276.5,389.167 276.5,399.5C 276.167,399.5 275.833,399.5 275.5,399.5C 275.5,389.167 275.5,378.833 275.5,368.5C 265.833,368.5 256.167,368.5 246.5,368.5C 245.833,368.5 245.167,368.5 244.5,368.5C 234.833,368.5 225.167,368.5 215.5,368.5C 215.5,378.833 215.5,389.167 215.5,399.5C 214.833,399.5 214.167,399.5 213.5,399.5C 213.5,389.167 213.5,378.833 213.5,368.5C 204.167,368.5 194.833,368.5 185.5,368.5C 185.5,378.833 185.5,389.167 185.5,399.5C 184.833,399.5 184.167,399.5 183.5,399.5C 183.5,389.167 183.5,378.833 183.5,368.5C 173.833,368.5 164.167,368.5 154.5,368.5C 153.833,368.5 153.167,368.5 152.5,368.5C 142.833,368.5 133.167,368.5 123.5,368.5C 123.5,378.833 123.5,389.167 123.5,399.5C 123.167,399.5 122.833,399.5 122.5,399.5C 122.5,389.167 122.5,378.833 122.5,368.5C 112.833,368.5 103.167,368.5 93.5,368.5C 93.5,378.833 93.5,389.167 93.5,399.5C 92.8333,399.5 92.1667,399.5 91.5,399.5C 91.5,389.167 91.5,378.833 91.5,368.5C 81.8333,368.5 72.1667,368.5 62.5,368.5C 62.5,378.833 62.5,389.167 62.5,399.5C 61.8333,399.5 61.1667,399.5 60.5,399.5C 60.5,389.167 60.5,378.833 60.5,368.5C 50.8333,368.5 41.1667,368.5 31.5,368.5C 31.5,378.833 31.5,389.167 31.5,399.5C 31.1667,399.5 30.8333,399.5 30.5,399.5C 30.5,389.167 30.5,378.833 30.5,368.5C 20.1667,368.5 9.83333,368.5 -0.5,368.5C -0.5,368.167 -0.5,367.833 -0.5,367.5C 9.83333,367.5 20.1667,367.5 30.5,367.5C 30.5,357.833 30.5,348.167 30.5,338.5C 20.1667,338.5 9.83333,338.5 -0.5,338.5C -0.5,337.833 -0.5,337.167 -0.5,336.5C 9.83333,336.5 20.1667,336.5 30.5,336.5C 30.5,326.833 30.5,317.167 30.5,307.5C 20.1667,307.5 9.83333,307.5 -0.5,307.5C -0.5,306.833 -0.5,306.167 -0.5,305.5C 9.83333,305.5 20.1667,305.5 30.5,305.5C 30.5,295.833 30.5,286.167 30.5,276.5C 20.1667,276.5 9.83333,276.5 -0.5,276.5C -0.5,276.167 -0.5,275.833 -0.5,275.5C 9.83333,275.5 20.1667,275.5 30.5,275.5C 30.5,265.833 30.5,256.167 30.5,246.5C 30.5,245.833 30.5,245.167 30.5,244.5C 30.5,234.833 30.5,225.167 30.5,215.5C 20.1667,215.5 9.83333,215.5 -0.5,215.5C -0.5,214.833 -0.5,214.167 -0.5,213.5C 9.83333,213.5 20.1667,213.5 30.5,213.5C 30.5,204.167 30.5,194.833 30.5,185.5C 20.1667,185.5 9.83333,185.5 -0.5,185.5C -0.5,184.833 -0.5,184.167 -0.5,183.5C 9.83333,183.5 20.1667,183.5 30.5,183.5C 30.5,173.833 30.5,164.167 30.5,154.5C 30.5,153.833 30.5,153.167 30.5,152.5C 30.5,142.833 30.5,133.167 30.5,123.5C 20.1667,123.5 9.83333,123.5 -0.5,123.5C -0.5,123.167 -0.5,122.833 -0.5,122.5C 9.83333,122.5 20.1667,122.5 30.5,122.5C 30.5,112.833 30.5,103.167 30.5,93.5C 20.1667,93.5 9.83333,93.5 -0.5,93.5C -0.5,92.8333 -0.5,92.1667 -0.5,91.5C 9.83333,91.5 20.1667,91.5 30.5,91.5C 30.5,81.8333 30.5,72.1667 30.5,62.5C 20.1667,62.5 9.83333,62.5 -0.5,62.5C -0.5,61.8333 -0.5,61.1667 -0.5,60.5C 9.83333,60.5 20.1667,60.5 30.5,60.5C 30.5,50.8333 30.5,41.1667 30.5,31.5C 20.1667,31.5 9.83333,31.5 -0.5,31.5C -0.5,31.1667 -0.5,30.8333 -0.5,30.5C 9.83333,30.5 20.1667,30.5 30.5,30.5C 30.5,20.1667 30.5,9.83333 30.5,-0.5 Z M 31.5,31.5 C 41.1667,31.5 50.8333,31.5 60.5,31.5C 60.5,41.1667 60.5,50.8333 60.5,60.5C 50.8333,60.5 41.1667,60.5 31.5,60.5C 31.5,50.8333 31.5,41.1667 31.5,31.5 Z M 62.5,31.5 C 72.1667,31.5 81.8333,31.5 91.5,31.5C 91.5,41.1667 91.5,50.8333 91.5,60.5C 81.8333,60.5 72.1667,60.5 62.5,60.5C 62.5,50.8333 62.5,41.1667 62.5,31.5 Z M 93.5,31.5 C 103.167,31.5 112.833,31.5 122.5,31.5C 122.5,41.1667 122.5,50.8333 122.5,60.5C 112.833,60.5 103.167,60.5 93.5,60.5C 93.5,50.8333 93.5,41.1667 93.5,31.5 Z M 152.5,31.5 C 152.5,41.1667 152.5,50.8333 152.5,60.5C 142.833,60.5 133.167,60.5 123.5,60.5C 123.5,50.8333 123.5,41.1667 123.5,31.5C 133.167,31.5 142.833,31.5 152.5,31.5 Z M 154.5,31.5 C 164.167,31.5 173.833,31.5 183.5,31.5C 183.5,41.1667 183.5,50.8333 183.5,60.5C 173.833,60.5 164.167,60.5 154.5,60.5C 154.5,50.8333 154.5,41.1667 154.5,31.5 Z M 185.5,31.5 C 194.833,31.5 204.167,31.5 213.5,31.5C 213.5,41.1667 213.5,50.8333 213.5,60.5C 204.167,60.5 194.833,60.5 185.5,60.5C 185.5,50.8333 185.5,41.1667 185.5,31.5 Z M 244.5,31.5 C 244.5,41.1667 244.5,50.8333 244.5,60.5C 234.833,60.5 225.167,60.5 215.5,60.5C 215.5,50.8333 215.5,41.1667 215.5,31.5C 225.167,31.5 234.833,31.5 244.5,31.5 Z M 246.5,31.5 C 256.167,31.5 265.833,31.5 275.5,31.5C 275.5,41.1667 275.5,50.8333 275.5,60.5C 265.833,60.5 256.167,60.5 246.5,60.5C 246.5,50.8333 246.5,41.1667 246.5,31.5 Z M 276.5,31.5 C 286.167,31.5 295.833,31.5 305.5,31.5C 305.5,41.1667 305.5,50.8333 305.5,60.5C 295.833,60.5 286.167,60.5 276.5,60.5C 276.5,50.8333 276.5,41.1667 276.5,31.5 Z M 307.5,31.5 C 317.167,31.5 326.833,31.5 336.5,31.5C 336.5,41.1667 336.5,50.8333 336.5,60.5C 326.833,60.5 317.167,60.5 307.5,60.5C 307.5,50.8333 307.5,41.1667 307.5,31.5 Z M 338.5,31.5 C 348.167,31.5 357.833,31.5 367.5,31.5C 367.5,41.1667 367.5,50.8333 367.5,60.5C 357.833,60.5 348.167,60.5 338.5,60.5C 338.5,50.8333 338.5,41.1667 338.5,31.5 Z M 31.5,62.5 C 41.1667,62.5 50.8333,62.5 60.5,62.5C 60.5,72.1667 60.5,81.8333 60.5,91.5C 50.8333,91.5 41.1667,91.5 31.5,91.5C 31.5,81.8333 31.5,72.1667 31.5,62.5 Z M 62.5,62.5 C 72.1667,62.5 81.8333,62.5 91.5,62.5C 91.5,72.1667 91.5,81.8333 91.5,91.5C 81.8333,91.5 72.1667,91.5 62.5,91.5C 62.5,81.8333 62.5,72.1667 62.5,62.5 Z M 93.5,62.5 C 103.167,62.5 112.833,62.5 122.5,62.5C 122.5,72.1667 122.5,81.8333 122.5,91.5C 112.833,91.5 103.167,91.5 93.5,91.5C 93.5,81.8333 93.5,72.1667 93.5,62.5 Z M 152.5,62.5 C 152.5,72.1667 152.5,81.8333 152.5,91.5C 142.833,91.5 133.167,91.5 123.5,91.5C 123.5,81.8333 123.5,72.1667 123.5,62.5C 133.167,62.5 142.833,62.5 152.5,62.5 Z M 154.5,62.5 C 164.167,62.5 173.833,62.5 183.5,62.5C 183.5,72.1667 183.5,81.8333 183.5,91.5C 173.833,91.5 164.167,91.5 154.5,91.5C 154.5,81.8333 154.5,72.1667 154.5,62.5 Z M 185.5,62.5 C 194.833,62.5 204.167,62.5 213.5,62.5C 213.5,72.1667 213.5,81.8333 213.5,91.5C 204.167,91.5 194.833,91.5 185.5,91.5C 185.5,81.8333 185.5,72.1667 185.5,62.5 Z M 244.5,62.5 C 244.5,72.1667 244.5,81.8333 244.5,91.5C 234.833,91.5 225.167,91.5 215.5,91.5C 215.5,81.8333 215.5,72.1667 215.5,62.5C 225.167,62.5 234.833,62.5 244.5,62.5 Z M 246.5,62.5 C 256.167,62.5 265.833,62.5 275.5,62.5C 275.5,72.1667 275.5,81.8333 275.5,91.5C 265.833,91.5 256.167,91.5 246.5,91.5C 246.5,81.8333 246.5,72.1667 246.5,62.5 Z M 276.5,62.5 C 286.167,62.5 295.833,62.5 305.5,62.5C 305.5,72.1667 305.5,81.8333 305.5,91.5C 295.833,91.5 286.167,91.5 276.5,91.5C 276.5,81.8333 276.5,72.1667 276.5,62.5 Z M 307.5,62.5 C 317.167,62.5 326.833,62.5 336.5,62.5C 336.5,72.1667 336.5,81.8333 336.5,91.5C 326.833,91.5 317.167,91.5 307.5,91.5C 307.5,81.8333 307.5,72.1667 307.5,62.5 Z M 338.5,62.5 C 348.167,62.5 357.833,62.5 367.5,62.5C 367.5,72.1667 367.5,81.8333 367.5,91.5C 357.833,91.5 348.167,91.5 338.5,91.5C 338.5,81.8333 338.5,72.1667 338.5,62.5 Z M 31.5,93.5 C 41.1667,93.5 50.8333,93.5 60.5,93.5C 60.5,103.167 60.5,112.833 60.5,122.5C 50.8333,122.5 41.1667,122.5 31.5,122.5C 31.5,112.833 31.5,103.167 31.5,93.5 Z M 62.5,93.5 C 72.1667,93.5 81.8333,93.5 91.5,93.5C 91.5,103.167 91.5,112.833 91.5,122.5C 81.8333,122.5 72.1667,122.5 62.5,122.5C 62.5,112.833 62.5,103.167 62.5,93.5 Z M 93.5,93.5 C 103.167,93.5 112.833,93.5 122.5,93.5C 122.5,103.167 122.5,112.833 122.5,122.5C 112.833,122.5 103.167,122.5 93.5,122.5C 93.5,112.833 93.5,103.167 93.5,93.5 Z M 152.5,93.5 C 152.5,103.167 152.5,112.833 152.5,122.5C 142.833,122.5 133.167,122.5 123.5,122.5C 123.5,112.833 123.5,103.167 123.5,93.5C 133.167,93.5 142.833,93.5 152.5,93.5 Z M 154.5,93.5 C 164.167,93.5 173.833,93.5 183.5,93.5C 183.5,103.167 183.5,112.833 183.5,122.5C 173.833,122.5 164.167,122.5 154.5,122.5C 154.5,112.833 154.5,103.167 154.5,93.5 Z M 185.5,93.5 C 194.833,93.5 204.167,93.5 213.5,93.5C 213.5,103.167 213.5,112.833 213.5,122.5C 204.167,122.5 194.833,122.5 185.5,122.5C 185.5,112.833 185.5,103.167 185.5,93.5 Z M 244.5,93.5 C 244.5,103.167 244.5,112.833 244.5,122.5C 234.833,122.5 225.167,122.5 215.5,122.5C 215.5,112.833 215.5,103.167 215.5,93.5C 225.167,93.5 234.833,93.5 244.5,93.5 Z M 246.5,93.5 C 256.167,93.5 265.833,93.5 275.5,93.5C 275.5,103.167 275.5,112.833 275.5,122.5C 265.833,122.5 256.167,122.5 246.5,122.5C 246.5,112.833 246.5,103.167 246.5,93.5 Z M 276.5,93.5 C 286.167,93.5 295.833,93.5 305.5,93.5C 305.5,103.167 305.5,112.833 305.5,122.5C 295.833,122.5 286.167,122.5 276.5,122.5C 276.5,112.833 276.5,103.167 276.5,93.5 Z M 307.5,93.5 C 317.167,93.5 326.833,93.5 336.5,93.5C 336.5,103.167 336.5,112.833 336.5,122.5C 326.833,122.5 317.167,122.5 307.5,122.5C 307.5,112.833 307.5,103.167 307.5,93.5 Z M 338.5,93.5 C 348.167,93.5 357.833,93.5 367.5,93.5C 367.5,103.167 367.5,112.833 367.5,122.5C 357.833,122.5 348.167,122.5 338.5,122.5C 338.5,112.833 338.5,103.167 338.5,93.5 Z M 60.5,152.5 C 50.8333,152.5 41.1667,152.5 31.5,152.5C 31.5,142.833 31.5,133.167 31.5,123.5C 41.1667,123.5 50.8333,123.5 60.5,123.5C 60.5,133.167 60.5,142.833 60.5,152.5 Z M 91.5,152.5 C 81.8333,152.5 72.1667,152.5 62.5,152.5C 62.5,142.833 62.5,133.167 62.5,123.5C 72.1667,123.5 81.8333,123.5 91.5,123.5C 91.5,133.167 91.5,142.833 91.5,152.5 Z M 122.5,152.5 C 112.833,152.5 103.167,152.5 93.5,152.5C 93.5,142.833 93.5,133.167 93.5,123.5C 103.167,123.5 112.833,123.5 122.5,123.5C 122.5,133.167 122.5,142.833 122.5,152.5 Z M 152.5,123.5 C 152.5,133.167 152.5,142.833 152.5,152.5C 142.833,152.5 133.167,152.5 123.5,152.5C 123.5,142.833 123.5,133.167 123.5,123.5C 133.167,123.5 142.833,123.5 152.5,123.5 Z M 154.5,123.5 C 164.167,123.5 173.833,123.5 183.5,123.5C 183.5,133.167 183.5,142.833 183.5,152.5C 173.833,152.5 164.167,152.5 154.5,152.5C 154.5,142.833 154.5,133.167 154.5,123.5 Z M 213.5,152.5 C 204.167,152.5 194.833,152.5 185.5,152.5C 185.5,142.833 185.5,133.167 185.5,123.5C 194.833,123.5 204.167,123.5 213.5,123.5C 213.5,133.167 213.5,142.833 213.5,152.5 Z M 244.5,123.5 C 244.5,133.167 244.5,142.833 244.5,152.5C 234.833,152.5 225.167,152.5 215.5,152.5C 215.5,142.833 215.5,133.167 215.5,123.5C 225.167,123.5 234.833,123.5 244.5,123.5 Z M 246.5,123.5 C 256.167,123.5 265.833,123.5 275.5,123.5C 275.5,133.167 275.5,142.833 275.5,152.5C 265.833,152.5 256.167,152.5 246.5,152.5C 246.5,142.833 246.5,133.167 246.5,123.5 Z M 305.5,152.5 C 295.833,152.5 286.167,152.5 276.5,152.5C 276.5,142.833 276.5,133.167 276.5,123.5C 286.167,123.5 295.833,123.5 305.5,123.5C 305.5,133.167 305.5,142.833 305.5,152.5 Z M 336.5,152.5 C 326.833,152.5 317.167,152.5 307.5,152.5C 307.5,142.833 307.5,133.167 307.5,123.5C 317.167,123.5 326.833,123.5 336.5,123.5C 336.5,133.167 336.5,142.833 336.5,152.5 Z M 367.5,152.5 C 357.833,152.5 348.167,152.5 338.5,152.5C 338.5,142.833 338.5,133.167 338.5,123.5C 348.167,123.5 357.833,123.5 367.5,123.5C 367.5,133.167 367.5,142.833 367.5,152.5 Z M 31.5,154.5 C 41.1667,154.5 50.8333,154.5 60.5,154.5C 60.5,164.167 60.5,173.833 60.5,183.5C 50.8333,183.5 41.1667,183.5 31.5,183.5C 31.5,173.833 31.5,164.167 31.5,154.5 Z M 62.5,154.5 C 72.1667,154.5 81.8333,154.5 91.5,154.5C 91.5,164.167 91.5,173.833 91.5,183.5C 81.8333,183.5 72.1667,183.5 62.5,183.5C 62.5,173.833 62.5,164.167 62.5,154.5 Z M 93.5,154.5 C 103.167,154.5 112.833,154.5 122.5,154.5C 122.5,164.167 122.5,173.833 122.5,183.5C 112.833,183.5 103.167,183.5 93.5,183.5C 93.5,173.833 93.5,164.167 93.5,154.5 Z M 123.5,154.5 C 133.167,154.5 142.833,154.5 152.5,154.5C 152.5,164.167 152.5,173.833 152.5,183.5C 142.833,183.5 133.167,183.5 123.5,183.5C 123.5,173.833 123.5,164.167 123.5,154.5 Z M 154.5,154.5 C 164.167,154.5 173.833,154.5 183.5,154.5C 183.5,164.167 183.5,173.833 183.5,183.5C 173.833,183.5 164.167,183.5 154.5,183.5C 154.5,173.833 154.5,164.167 154.5,154.5 Z M 185.5,154.5 C 194.833,154.5 204.167,154.5 213.5,154.5C 213.5,164.167 213.5,173.833 213.5,183.5C 204.167,183.5 194.833,183.5 185.5,183.5C 185.5,173.833 185.5,164.167 185.5,154.5 Z M 215.5,154.5 C 225.167,154.5 234.833,154.5 244.5,154.5C 244.5,164.167 244.5,173.833 244.5,183.5C 234.833,183.5 225.167,183.5 215.5,183.5C 215.5,173.833 215.5,164.167 215.5,154.5 Z M 246.5,154.5 C 256.167,154.5 265.833,154.5 275.5,154.5C 275.5,164.167 275.5,173.833 275.5,183.5C 265.833,183.5 256.167,183.5 246.5,183.5C 246.5,173.833 246.5,164.167 246.5,154.5 Z M 276.5,154.5 C 286.167,154.5 295.833,154.5 305.5,154.5C 305.5,164.167 305.5,173.833 305.5,183.5C 295.833,183.5 286.167,183.5 276.5,183.5C 276.5,173.833 276.5,164.167 276.5,154.5 Z M 307.5,154.5 C 317.167,154.5 326.833,154.5 336.5,154.5C 336.5,164.167 336.5,173.833 336.5,183.5C 326.833,183.5 317.167,183.5 307.5,183.5C 307.5,173.833 307.5,164.167 307.5,154.5 Z M 338.5,154.5 C 348.167,154.5 357.833,154.5 367.5,154.5C 367.5,164.167 367.5,173.833 367.5,183.5C 357.833,183.5 348.167,183.5 338.5,183.5C 338.5,173.833 338.5,164.167 338.5,154.5 Z M 31.5,185.5 C 41.1667,185.5 50.8333,185.5 60.5,185.5C 60.5,194.833 60.5,204.167 60.5,213.5C 50.8333,213.5 41.1667,213.5 31.5,213.5C 31.5,204.167 31.5,194.833 31.5,185.5 Z M 62.5,185.5 C 72.1667,185.5 81.8333,185.5 91.5,185.5C 91.5,194.833 91.5,204.167 91.5,213.5C 81.8333,213.5 72.1667,213.5 62.5,213.5C 62.5,204.167 62.5,194.833 62.5,185.5 Z M 93.5,185.5 C 103.167,185.5 112.833,185.5 122.5,185.5C 122.5,194.833 122.5,204.167 122.5,213.5C 112.833,213.5 103.167,213.5 93.5,213.5C 93.5,204.167 93.5,194.833 93.5,185.5 Z M 152.5,185.5 C 152.5,194.833 152.5,204.167 152.5,213.5C 142.833,213.5 133.167,213.5 123.5,213.5C 123.5,204.167 123.5,194.833 123.5,185.5C 133.167,185.5 142.833,185.5 152.5,185.5 Z M 154.5,185.5 C 164.167,185.5 173.833,185.5 183.5,185.5C 183.5,194.833 183.5,204.167 183.5,213.5C 173.833,213.5 164.167,213.5 154.5,213.5C 154.5,204.167 154.5,194.833 154.5,185.5 Z M 185.5,185.5 C 194.833,185.5 204.167,185.5 213.5,185.5C 213.5,194.833 213.5,204.167 213.5,213.5C 204.167,213.5 194.833,213.5 185.5,213.5C 185.5,204.167 185.5,194.833 185.5,185.5 Z M 244.5,185.5 C 244.5,194.833 244.5,204.167 244.5,213.5C 234.833,213.5 225.167,213.5 215.5,213.5C 215.5,204.167 215.5,194.833 215.5,185.5C 225.167,185.5 234.833,185.5 244.5,185.5 Z M 246.5,185.5 C 256.167,185.5 265.833,185.5 275.5,185.5C 275.5,194.833 275.5,204.167 275.5,213.5C 265.833,213.5 256.167,213.5 246.5,213.5C 246.5,204.167 246.5,194.833 246.5,185.5 Z M 276.5,185.5 C 286.167,185.5 295.833,185.5 305.5,185.5C 305.5,194.833 305.5,204.167 305.5,213.5C 295.833,213.5 286.167,213.5 276.5,213.5C 276.5,204.167 276.5,194.833 276.5,185.5 Z M 307.5,185.5 C 317.167,185.5 326.833,185.5 336.5,185.5C 336.5,194.833 336.5,204.167 336.5,213.5C 326.833,213.5 317.167,213.5 307.5,213.5C 307.5,204.167 307.5,194.833 307.5,185.5 Z M 338.5,185.5 C 348.167,185.5 357.833,185.5 367.5,185.5C 367.5,194.833 367.5,204.167 367.5,213.5C 357.833,213.5 348.167,213.5 338.5,213.5C 338.5,204.167 338.5,194.833 338.5,185.5 Z M 60.5,244.5 C 50.8333,244.5 41.1667,244.5 31.5,244.5C 31.5,234.833 31.5,225.167 31.5,215.5C 41.1667,215.5 50.8333,215.5 60.5,215.5C 60.5,225.167 60.5,234.833 60.5,244.5 Z M 91.5,244.5 C 81.8333,244.5 72.1667,244.5 62.5,244.5C 62.5,234.833 62.5,225.167 62.5,215.5C 72.1667,215.5 81.8333,215.5 91.5,215.5C 91.5,225.167 91.5,234.833 91.5,244.5 Z M 122.5,244.5 C 112.833,244.5 103.167,244.5 93.5,244.5C 93.5,234.833 93.5,225.167 93.5,215.5C 103.167,215.5 112.833,215.5 122.5,215.5C 122.5,225.167 122.5,234.833 122.5,244.5 Z M 152.5,215.5 C 152.5,225.167 152.5,234.833 152.5,244.5C 142.833,244.5 133.167,244.5 123.5,244.5C 123.5,234.833 123.5,225.167 123.5,215.5C 133.167,215.5 142.833,215.5 152.5,215.5 Z M 154.5,215.5 C 164.167,215.5 173.833,215.5 183.5,215.5C 183.5,225.167 183.5,234.833 183.5,244.5C 173.833,244.5 164.167,244.5 154.5,244.5C 154.5,234.833 154.5,225.167 154.5,215.5 Z M 213.5,244.5 C 204.167,244.5 194.833,244.5 185.5,244.5C 185.5,234.833 185.5,225.167 185.5,215.5C 194.833,215.5 204.167,215.5 213.5,215.5C 213.5,225.167 213.5,234.833 213.5,244.5 Z M 244.5,215.5 C 244.5,225.167 244.5,234.833 244.5,244.5C 234.833,244.5 225.167,244.5 215.5,244.5C 215.5,234.833 215.5,225.167 215.5,215.5C 225.167,215.5 234.833,215.5 244.5,215.5 Z M 246.5,215.5 C 256.167,215.5 265.833,215.5 275.5,215.5C 275.5,225.167 275.5,234.833 275.5,244.5C 265.833,244.5 256.167,244.5 246.5,244.5C 246.5,234.833 246.5,225.167 246.5,215.5 Z M 305.5,244.5 C 295.833,244.5 286.167,244.5 276.5,244.5C 276.5,234.833 276.5,225.167 276.5,215.5C 286.167,215.5 295.833,215.5 305.5,215.5C 305.5,225.167 305.5,234.833 305.5,244.5 Z M 336.5,244.5 C 326.833,244.5 317.167,244.5 307.5,244.5C 307.5,234.833 307.5,225.167 307.5,215.5C 317.167,215.5 326.833,215.5 336.5,215.5C 336.5,225.167 336.5,234.833 336.5,244.5 Z M 367.5,244.5 C 357.833,244.5 348.167,244.5 338.5,244.5C 338.5,234.833 338.5,225.167 338.5,215.5C 348.167,215.5 357.833,215.5 367.5,215.5C 367.5,225.167 367.5,234.833 367.5,244.5 Z M 31.5,246.5 C 41.1667,246.5 50.8333,246.5 60.5,246.5C 60.5,256.167 60.5,265.833 60.5,275.5C 50.8333,275.5 41.1667,275.5 31.5,275.5C 31.5,265.833 31.5,256.167 31.5,246.5 Z M 62.5,246.5 C 72.1667,246.5 81.8333,246.5 91.5,246.5C 91.5,256.167 91.5,265.833 91.5,275.5C 81.8333,275.5 72.1667,275.5 62.5,275.5C 62.5,265.833 62.5,256.167 62.5,246.5 Z M 93.5,246.5 C 103.167,246.5 112.833,246.5 122.5,246.5C 122.5,256.167 122.5,265.833 122.5,275.5C 112.833,275.5 103.167,275.5 93.5,275.5C 93.5,265.833 93.5,256.167 93.5,246.5 Z M 123.5,246.5 C 133.167,246.5 142.833,246.5 152.5,246.5C 152.5,256.167 152.5,265.833 152.5,275.5C 142.833,275.5 133.167,275.5 123.5,275.5C 123.5,265.833 123.5,256.167 123.5,246.5 Z M 154.5,246.5 C 164.167,246.5 173.833,246.5 183.5,246.5C 183.5,256.167 183.5,265.833 183.5,275.5C 173.833,275.5 164.167,275.5 154.5,275.5C 154.5,265.833 154.5,256.167 154.5,246.5 Z M 185.5,246.5 C 194.833,246.5 204.167,246.5 213.5,246.5C 213.5,256.167 213.5,265.833 213.5,275.5C 204.167,275.5 194.833,275.5 185.5,275.5C 185.5,265.833 185.5,256.167 185.5,246.5 Z M 215.5,246.5 C 225.167,246.5 234.833,246.5 244.5,246.5C 244.5,256.167 244.5,265.833 244.5,275.5C 234.833,275.5 225.167,275.5 215.5,275.5C 215.5,265.833 215.5,256.167 215.5,246.5 Z M 246.5,246.5 C 256.167,246.5 265.833,246.5 275.5,246.5C 275.5,256.167 275.5,265.833 275.5,275.5C 265.833,275.5 256.167,275.5 246.5,275.5C 246.5,265.833 246.5,256.167 246.5,246.5 Z M 276.5,246.5 C 286.167,246.5 295.833,246.5 305.5,246.5C 305.5,256.167 305.5,265.833 305.5,275.5C 295.833,275.5 286.167,275.5 276.5,275.5C 276.5,265.833 276.5,256.167 276.5,246.5 Z M 307.5,246.5 C 317.167,246.5 326.833,246.5 336.5,246.5C 336.5,256.167 336.5,265.833 336.5,275.5C 326.833,275.5 317.167,275.5 307.5,275.5C 307.5,265.833 307.5,256.167 307.5,246.5 Z M 338.5,246.5 C 348.167,246.5 357.833,246.5 367.5,246.5C 367.5,256.167 367.5,265.833 367.5,275.5C 357.833,275.5 348.167,275.5 338.5,275.5C 338.5,265.833 338.5,256.167 338.5,246.5 Z M 31.5,276.5 C 41.1667,276.5 50.8333,276.5 60.5,276.5C 60.5,286.167 60.5,295.833 60.5,305.5C 50.8333,305.5 41.1667,305.5 31.5,305.5C 31.5,295.833 31.5,286.167 31.5,276.5 Z M 62.5,276.5 C 72.1667,276.5 81.8333,276.5 91.5,276.5C 91.5,286.167 91.5,295.833 91.5,305.5C 81.8333,305.5 72.1667,305.5 62.5,305.5C 62.5,295.833 62.5,286.167 62.5,276.5 Z M 93.5,276.5 C 103.167,276.5 112.833,276.5 122.5,276.5C 122.5,286.167 122.5,295.833 122.5,305.5C 112.833,305.5 103.167,305.5 93.5,305.5C 93.5,295.833 93.5,286.167 93.5,276.5 Z M 152.5,276.5 C 152.5,286.167 152.5,295.833 152.5,305.5C 142.833,305.5 133.167,305.5 123.5,305.5C 123.5,295.833 123.5,286.167 123.5,276.5C 133.167,276.5 142.833,276.5 152.5,276.5 Z M 154.5,276.5 C 164.167,276.5 173.833,276.5 183.5,276.5C 183.5,286.167 183.5,295.833 183.5,305.5C 173.833,305.5 164.167,305.5 154.5,305.5C 154.5,295.833 154.5,286.167 154.5,276.5 Z M 185.5,276.5 C 194.833,276.5 204.167,276.5 213.5,276.5C 213.5,286.167 213.5,295.833 213.5,305.5C 204.167,305.5 194.833,305.5 185.5,305.5C 185.5,295.833 185.5,286.167 185.5,276.5 Z M 244.5,276.5 C 244.5,286.167 244.5,295.833 244.5,305.5C 234.833,305.5 225.167,305.5 215.5,305.5C 215.5,295.833 215.5,286.167 215.5,276.5C 225.167,276.5 234.833,276.5 244.5,276.5 Z M 246.5,276.5 C 256.167,276.5 265.833,276.5 275.5,276.5C 275.5,286.167 275.5,295.833 275.5,305.5C 265.833,305.5 256.167,305.5 246.5,305.5C 246.5,295.833 246.5,286.167 246.5,276.5 Z M 276.5,276.5 C 286.167,276.5 295.833,276.5 305.5,276.5C 305.5,286.167 305.5,295.833 305.5,305.5C 295.833,305.5 286.167,305.5 276.5,305.5C 276.5,295.833 276.5,286.167 276.5,276.5 Z M 307.5,276.5 C 317.167,276.5 326.833,276.5 336.5,276.5C 336.5,286.167 336.5,295.833 336.5,305.5C 326.833,305.5 317.167,305.5 307.5,305.5C 307.5,295.833 307.5,286.167 307.5,276.5 Z M 338.5,276.5 C 348.167,276.5 357.833,276.5 367.5,276.5C 367.5,286.167 367.5,295.833 367.5,305.5C 357.833,305.5 348.167,305.5 338.5,305.5C 338.5,295.833 338.5,286.167 338.5,276.5 Z M 31.5,307.5 C 41.1667,307.5 50.8333,307.5 60.5,307.5C 60.5,317.167 60.5,326.833 60.5,336.5C 50.8333,336.5 41.1667,336.5 31.5,336.5C 31.5,326.833 31.5,317.167 31.5,307.5 Z M 62.5,307.5 C 72.1667,307.5 81.8333,307.5 91.5,307.5C 91.5,317.167 91.5,326.833 91.5,336.5C 81.8333,336.5 72.1667,336.5 62.5,336.5C 62.5,326.833 62.5,317.167 62.5,307.5 Z M 93.5,307.5 C 103.167,307.5 112.833,307.5 122.5,307.5C 122.5,317.167 122.5,326.833 122.5,336.5C 112.833,336.5 103.167,336.5 93.5,336.5C 93.5,326.833 93.5,317.167 93.5,307.5 Z M 152.5,307.5 C 152.5,317.167 152.5,326.833 152.5,336.5C 142.833,336.5 133.167,336.5 123.5,336.5C 123.5,326.833 123.5,317.167 123.5,307.5C 133.167,307.5 142.833,307.5 152.5,307.5 Z M 154.5,307.5 C 164.167,307.5 173.833,307.5 183.5,307.5C 183.5,317.167 183.5,326.833 183.5,336.5C 173.833,336.5 164.167,336.5 154.5,336.5C 154.5,326.833 154.5,317.167 154.5,307.5 Z M 185.5,307.5 C 194.833,307.5 204.167,307.5 213.5,307.5C 213.5,317.167 213.5,326.833 213.5,336.5C 204.167,336.5 194.833,336.5 185.5,336.5C 185.5,326.833 185.5,317.167 185.5,307.5 Z M 244.5,307.5 C 244.5,317.167 244.5,326.833 244.5,336.5C 234.833,336.5 225.167,336.5 215.5,336.5C 215.5,326.833 215.5,317.167 215.5,307.5C 225.167,307.5 234.833,307.5 244.5,307.5 Z M 246.5,307.5 C 256.167,307.5 265.833,307.5 275.5,307.5C 275.5,317.167 275.5,326.833 275.5,336.5C 265.833,336.5 256.167,336.5 246.5,336.5C 246.5,326.833 246.5,317.167 246.5,307.5 Z M 276.5,307.5 C 286.167,307.5 295.833,307.5 305.5,307.5C 305.5,317.167 305.5,326.833 305.5,336.5C 295.833,336.5 286.167,336.5 276.5,336.5C 276.5,326.833 276.5,317.167 276.5,307.5 Z M 307.5,307.5 C 317.167,307.5 326.833,307.5 336.5,307.5C 336.5,317.167 336.5,326.833 336.5,336.5C 326.833,336.5 317.167,336.5 307.5,336.5C 307.5,326.833 307.5,317.167 307.5,307.5 Z M 338.5,307.5 C 348.167,307.5 357.833,307.5 367.5,307.5C 367.5,317.167 367.5,326.833 367.5,336.5C 357.833,336.5 348.167,336.5 338.5,336.5C 338.5,326.833 338.5,317.167 338.5,307.5 Z M 31.5,338.5 C 41.1667,338.5 50.8333,338.5 60.5,338.5C 60.5,348.167 60.5,357.833 60.5,367.5C 50.8333,367.5 41.1667,367.5 31.5,367.5C 31.5,357.833 31.5,348.167 31.5,338.5 Z M 62.5,338.5 C 72.1667,338.5 81.8333,338.5 91.5,338.5C 91.5,348.167 91.5,357.833 91.5,367.5C 81.8333,367.5 72.1667,367.5 62.5,367.5C 62.5,357.833 62.5,348.167 62.5,338.5 Z M 93.5,338.5 C 103.167,338.5 112.833,338.5 122.5,338.5C 122.5,348.167 122.5,357.833 122.5,367.5C 112.833,367.5 103.167,367.5 93.5,367.5C 93.5,357.833 93.5,348.167 93.5,338.5 Z M 152.5,338.5 C 152.5,348.167 152.5,357.833 152.5,367.5C 142.833,367.5 133.167,367.5 123.5,367.5C 123.5,357.833 123.5,348.167 123.5,338.5C 133.167,338.5 142.833,338.5 152.5,338.5 Z M 154.5,338.5 C 164.167,338.5 173.833,338.5 183.5,338.5C 183.5,348.167 183.5,357.833 183.5,367.5C 173.833,367.5 164.167,367.5 154.5,367.5C 154.5,357.833 154.5,348.167 154.5,338.5 Z M 185.5,338.5 C 194.833,338.5 204.167,338.5 213.5,338.5C 213.5,348.167 213.5,357.833 213.5,367.5C 204.167,367.5 194.833,367.5 185.5,367.5C 185.5,357.833 185.5,348.167 185.5,338.5 Z M 244.5,338.5 C 244.5,348.167 244.5,357.833 244.5,367.5C 234.833,367.5 225.167,367.5 215.5,367.5C 215.5,357.833 215.5,348.167 215.5,338.5C 225.167,338.5 234.833,338.5 244.5,338.5 Z M 246.5,338.5 C 256.167,338.5 265.833,338.5 275.5,338.5C 275.5,348.167 275.5,357.833 275.5,367.5C 265.833,367.5 256.167,367.5 246.5,367.5C 246.5,357.833 246.5,348.167 246.5,338.5 Z M 276.5,338.5 C 286.167,338.5 295.833,338.5 305.5,338.5C 305.5,348.167 305.5,357.833 305.5,367.5C 295.833,367.5 286.167,367.5 276.5,367.5C 276.5,357.833 276.5,348.167 276.5,338.5 Z M 307.5,338.5 C 317.167,338.5 326.833,338.5 336.5,338.5C 336.5,348.167 336.5,357.833 336.5,367.5C 326.833,367.5 317.167,367.5 307.5,367.5C 307.5,357.833 307.5,348.167 307.5,338.5 Z M 338.5,338.5 C 348.167,338.5 357.833,338.5 367.5,338.5C 367.5,348.167 367.5,357.833 367.5,367.5C 357.833,367.5 348.167,367.5 338.5,367.5C 338.5,357.833 338.5,348.167 338.5,338.5 Z"/></g>
<g><path style="opacity:0.4" fill="#7e7f7e" d="M 152.5,-0.5 C 153.167,-0.5 153.833,-0.5 154.5,-0.5C 154.5,9.83333 154.5,20.1667 154.5,30.5C 153.833,30.5 153.167,30.5 152.5,30.5C 152.5,20.1667 152.5,9.83333 152.5,-0.5 Z"/></g>
<g><path style="opacity:0.398" fill="#7e7f7e" d="M 244.5,-0.5 C 245.167,-0.5 245.833,-0.5 246.5,-0.5C 246.5,9.83333 246.5,20.1667 246.5,30.5C 245.833,30.5 245.167,30.5 244.5,30.5C 244.5,20.1667 244.5,9.83333 244.5,-0.5 Z"/></g>
<g><path style="opacity:0.4" fill="#7e7f7e" d="M 152.5,31.5 C 153.167,31.5 153.833,31.5 154.5,31.5C 154.5,41.1667 154.5,50.8333 154.5,60.5C 153.833,60.5 153.167,60.5 152.5,60.5C 152.5,50.8333 152.5,41.1667 152.5,31.5 Z"/></g>
<g><path style="opacity:0.398" fill="#7e7f7e" d="M 244.5,31.5 C 245.167,31.5 245.833,31.5 246.5,31.5C 246.5,41.1667 246.5,50.8333 246.5,60.5C 245.833,60.5 245.167,60.5 244.5,60.5C 244.5,50.8333 244.5,41.1667 244.5,31.5 Z"/></g>
<g><path style="opacity:0.4" fill="#7e7f7e" d="M 152.5,62.5 C 153.167,62.5 153.833,62.5 154.5,62.5C 154.5,72.1667 154.5,81.8333 154.5,91.5C 153.833,91.5 153.167,91.5 152.5,91.5C 152.5,81.8333 152.5,72.1667 152.5,62.5 Z"/></g>
<g><path style="opacity:0.398" fill="#7e7f7e" d="M 244.5,62.5 C 245.167,62.5 245.833,62.5 246.5,62.5C 246.5,72.1667 246.5,81.8333 246.5,91.5C 245.833,91.5 245.167,91.5 244.5,91.5C 244.5,81.8333 244.5,72.1667 244.5,62.5 Z"/></g>
<g><path style="opacity:0.4" fill="#7e7f7e" d="M 152.5,93.5 C 153.167,93.5 153.833,93.5 154.5,93.5C 154.5,103.167 154.5,112.833 154.5,122.5C 153.833,122.5 153.167,122.5 152.5,122.5C 152.5,112.833 152.5,103.167 152.5,93.5 Z"/></g>
<g><path style="opacity:0.398" fill="#7e7f7e" d="M 244.5,93.5 C 245.167,93.5 245.833,93.5 246.5,93.5C 246.5,103.167 246.5,112.833 246.5,122.5C 245.833,122.5 245.167,122.5 244.5,122.5C 244.5,112.833 244.5,103.167 244.5,93.5 Z"/></g>
<g><path style="opacity:0.4" fill="#7e7f7e" d="M 152.5,123.5 C 153.167,123.5 153.833,123.5 154.5,123.5C 154.5,133.167 154.5,142.833 154.5,152.5C 153.833,152.5 153.167,152.5 152.5,152.5C 152.5,142.833 152.5,133.167 152.5,123.5 Z"/></g>
<g><path style="opacity:0.398" fill="#7e7f7e" d="M 244.5,123.5 C 245.167,123.5 245.833,123.5 246.5,123.5C 246.5,133.167 246.5,142.833 246.5,152.5C 245.833,152.5 245.167,152.5 244.5,152.5C 244.5,142.833 244.5,133.167 244.5,123.5 Z"/></g>
<g><path style="opacity:0.435" fill="#7e7f7e" d="M -0.5,152.5 C 9.83333,152.5 20.1667,152.5 30.5,152.5C 30.5,153.167 30.5,153.833 30.5,154.5C 20.1667,154.5 9.83333,154.5 -0.5,154.5C -0.5,153.833 -0.5,153.167 -0.5,152.5 Z"/></g>
<g><path style="opacity:0.435" fill="#7e7f7e" d="M 31.5,152.5 C 41.1667,152.5 50.8333,152.5 60.5,152.5C 60.5,153.167 60.5,153.833 60.5,154.5C 50.8333,154.5 41.1667,154.5 31.5,154.5C 31.5,153.833 31.5,153.167 31.5,152.5 Z"/></g>
<g><path style="opacity:0.435" fill="#7e7f7e" d="M 62.5,152.5 C 72.1667,152.5 81.8333,152.5 91.5,152.5C 91.5,153.167 91.5,153.833 91.5,154.5C 81.8333,154.5 72.1667,154.5 62.5,154.5C 62.5,153.833 62.5,153.167 62.5,152.5 Z"/></g>
<g><path style="opacity:0.435" fill="#7e7f7e" d="M 93.5,152.5 C 103.167,152.5 112.833,152.5 122.5,152.5C 122.5,153.167 122.5,153.833 122.5,154.5C 112.833,154.5 103.167,154.5 93.5,154.5C 93.5,153.833 93.5,153.167 93.5,152.5 Z"/></g>
<g><path style="opacity:0.435" fill="#7e7f7e" d="M 123.5,152.5 C 133.167,152.5 142.833,152.5 152.5,152.5C 152.5,153.167 152.5,153.833 152.5,154.5C 142.833,154.5 133.167,154.5 123.5,154.5C 123.5,153.833 123.5,153.167 123.5,152.5 Z"/></g>
<g><path style="opacity:0.661" fill="#bebfbe" d="M 152.5,152.5 C 153.167,152.5 153.833,152.5 154.5,152.5C 154.5,153.167 154.5,153.833 154.5,154.5C 153.833,154.5 153.167,154.5 152.5,154.5C 152.5,153.833 152.5,153.167 152.5,152.5 Z"/></g>
<g><path style="opacity:0.435" fill="#7e7f7e" d="M 154.5,152.5 C 164.167,152.5 173.833,152.5 183.5,152.5C 183.5,153.167 183.5,153.833 183.5,154.5C 173.833,154.5 164.167,154.5 154.5,154.5C 154.5,153.833 154.5,153.167 154.5,152.5 Z"/></g>
<g><path style="opacity:0.435" fill="#7e7f7e" d="M 185.5,152.5 C 194.833,152.5 204.167,152.5 213.5,152.5C 213.5,153.167 213.5,153.833 213.5,154.5C 204.167,154.5 194.833,154.5 185.5,154.5C 185.5,153.833 185.5,153.167 185.5,152.5 Z"/></g>
<g><path style="opacity:0.435" fill="#7e7f7e" d="M 215.5,152.5 C 225.167,152.5 234.833,152.5 244.5,152.5C 244.5,153.167 244.5,153.833 244.5,154.5C 234.833,154.5 225.167,154.5 215.5,154.5C 215.5,153.833 215.5,153.167 215.5,152.5 Z"/></g>
<g><path style="opacity:0.661" fill="#bebfbe" d="M 244.5,152.5 C 245.167,152.5 245.833,152.5 246.5,152.5C 246.5,153.167 246.5,153.833 246.5,154.5C 245.833,154.5 245.167,154.5 244.5,154.5C 244.5,153.833 244.5,153.167 244.5,152.5 Z"/></g>
<g><path style="opacity:0.435" fill="#7e7f7e" d="M 246.5,152.5 C 256.167,152.5 265.833,152.5 275.5,152.5C 275.5,153.167 275.5,153.833 275.5,154.5C 265.833,154.5 256.167,154.5 246.5,154.5C 246.5,153.833 246.5,153.167 246.5,152.5 Z"/></g>
<g><path style="opacity:0.435" fill="#7e7f7e" d="M 276.5,152.5 C 286.167,152.5 295.833,152.5 305.5,152.5C 305.5,153.167 305.5,153.833 305.5,154.5C 295.833,154.5 286.167,154.5 276.5,154.5C 276.5,153.833 276.5,153.167 276.5,152.5 Z"/></g>
<g><path style="opacity:0.435" fill="#7e7f7e" d="M 307.5,152.5 C 317.167,152.5 326.833,152.5 336.5,152.5C 336.5,153.167 336.5,153.833 336.5,154.5C 326.833,154.5 317.167,154.5 307.5,154.5C 307.5,153.833 307.5,153.167 307.5,152.5 Z"/></g>
<g><path style="opacity:0.435" fill="#7e7f7e" d="M 338.5,152.5 C 348.167,152.5 357.833,152.5 367.5,152.5C 367.5,153.167 367.5,153.833 367.5,154.5C 357.833,154.5 348.167,154.5 338.5,154.5C 338.5,153.833 338.5,153.167 338.5,152.5 Z"/></g>
<g><path style="opacity:0.435" fill="#7e7f7e" d="M 368.5,152.5 C 378.833,152.5 389.167,152.5 399.5,152.5C 399.5,153.167 399.5,153.833 399.5,154.5C 389.167,154.5 378.833,154.5 368.5,154.5C 368.5,153.833 368.5,153.167 368.5,152.5 Z"/></g>
<g><path style="opacity:0.4" fill="#7e7f7e" d="M 152.5,154.5 C 153.167,154.5 153.833,154.5 154.5,154.5C 154.5,164.167 154.5,173.833 154.5,183.5C 153.833,183.5 153.167,183.5 152.5,183.5C 152.5,173.833 152.5,164.167 152.5,154.5 Z"/></g>
<g><path style="opacity:0.398" fill="#7e7f7e" d="M 244.5,154.5 C 245.167,154.5 245.833,154.5 246.5,154.5C 246.5,164.167 246.5,173.833 246.5,183.5C 245.833,183.5 245.167,183.5 244.5,183.5C 244.5,173.833 244.5,164.167 244.5,154.5 Z"/></g>
<g><path style="opacity:0.4" fill="#7e7f7e" d="M 152.5,185.5 C 153.167,185.5 153.833,185.5 154.5,185.5C 154.5,194.833 154.5,204.167 154.5,213.5C 153.833,213.5 153.167,213.5 152.5,213.5C 152.5,204.167 152.5,194.833 152.5,185.5 Z"/></g>
<g><path style="opacity:0.398" fill="#7e7f7e" d="M 244.5,185.5 C 245.167,185.5 245.833,185.5 246.5,185.5C 246.5,194.833 246.5,204.167 246.5,213.5C 245.833,213.5 245.167,213.5 244.5,213.5C 244.5,204.167 244.5,194.833 244.5,185.5 Z"/></g>
<g><path style="opacity:0.4" fill="#7e7f7e" d="M 152.5,215.5 C 153.167,215.5 153.833,215.5 154.5,215.5C 154.5,225.167 154.5,234.833 154.5,244.5C 153.833,244.5 153.167,244.5 152.5,244.5C 152.5,234.833 152.5,225.167 152.5,215.5 Z"/></g>
<g><path style="opacity:0.398" fill="#7e7f7e" d="M 244.5,215.5 C 245.167,215.5 245.833,215.5 246.5,215.5C 246.5,225.167 246.5,234.833 246.5,244.5C 245.833,244.5 245.167,244.5 244.5,244.5C 244.5,234.833 244.5,225.167 244.5,215.5 Z"/></g>
<g><path style="opacity:0.435" fill="#7e7f7e" d="M -0.5,244.5 C 9.83333,244.5 20.1667,244.5 30.5,244.5C 30.5,245.167 30.5,245.833 30.5,246.5C 20.1667,246.5 9.83333,246.5 -0.5,246.5C -0.5,245.833 -0.5,245.167 -0.5,244.5 Z"/></g>
<g><path style="opacity:0.435" fill="#7e7f7e" d="M 31.5,244.5 C 41.1667,244.5 50.8333,244.5 60.5,244.5C 60.5,245.167 60.5,245.833 60.5,246.5C 50.8333,246.5 41.1667,246.5 31.5,246.5C 31.5,245.833 31.5,245.167 31.5,244.5 Z"/></g>
<g><path style="opacity:0.435" fill="#7e7f7e" d="M 62.5,244.5 C 72.1667,244.5 81.8333,244.5 91.5,244.5C 91.5,245.167 91.5,245.833 91.5,246.5C 81.8333,246.5 72.1667,246.5 62.5,246.5C 62.5,245.833 62.5,245.167 62.5,244.5 Z"/></g>
<g><path style="opacity:0.435" fill="#7e7f7e" d="M 93.5,244.5 C 103.167,244.5 112.833,244.5 122.5,244.5C 122.5,245.167 122.5,245.833 122.5,246.5C 112.833,246.5 103.167,246.5 93.5,246.5C 93.5,245.833 93.5,245.167 93.5,244.5 Z"/></g>
<g><path style="opacity:0.435" fill="#7e7f7e" d="M 123.5,244.5 C 133.167,244.5 142.833,244.5 152.5,244.5C 152.5,245.167 152.5,245.833 152.5,246.5C 142.833,246.5 133.167,246.5 123.5,246.5C 123.5,245.833 123.5,245.167 123.5,244.5 Z"/></g>
<g><path style="opacity:0.661" fill="#bebfbe" d="M 152.5,244.5 C 153.167,244.5 153.833,244.5 154.5,244.5C 154.5,245.167 154.5,245.833 154.5,246.5C 153.833,246.5 153.167,246.5 152.5,246.5C 152.5,245.833 152.5,245.167 152.5,244.5 Z"/></g>
<g><path style="opacity:0.435" fill="#7e7f7e" d="M 154.5,244.5 C 164.167,244.5 173.833,244.5 183.5,244.5C 183.5,245.167 183.5,245.833 183.5,246.5C 173.833,246.5 164.167,246.5 154.5,246.5C 154.5,245.833 154.5,245.167 154.5,244.5 Z"/></g>
<g><path style="opacity:0.435" fill="#7e7f7e" d="M 185.5,244.5 C 194.833,244.5 204.167,244.5 213.5,244.5C 213.5,245.167 213.5,245.833 213.5,246.5C 204.167,246.5 194.833,246.5 185.5,246.5C 185.5,245.833 185.5,245.167 185.5,244.5 Z"/></g>
<g><path style="opacity:0.435" fill="#7e7f7e" d="M 215.5,244.5 C 225.167,244.5 234.833,244.5 244.5,244.5C 244.5,245.167 244.5,245.833 244.5,246.5C 234.833,246.5 225.167,246.5 215.5,246.5C 215.5,245.833 215.5,245.167 215.5,244.5 Z"/></g>
<g><path style="opacity:0.661" fill="#bebfbe" d="M 244.5,244.5 C 245.167,244.5 245.833,244.5 246.5,244.5C 246.5,245.167 246.5,245.833 246.5,246.5C 245.833,246.5 245.167,246.5 244.5,246.5C 244.5,245.833 244.5,245.167 244.5,244.5 Z"/></g>
<g><path style="opacity:0.435" fill="#7e7f7e" d="M 246.5,244.5 C 256.167,244.5 265.833,244.5 275.5,244.5C 275.5,245.167 275.5,245.833 275.5,246.5C 265.833,246.5 256.167,246.5 246.5,246.5C 246.5,245.833 246.5,245.167 246.5,244.5 Z"/></g>
<g><path style="opacity:0.435" fill="#7e7f7e" d="M 276.5,244.5 C 286.167,244.5 295.833,244.5 305.5,244.5C 305.5,245.167 305.5,245.833 305.5,246.5C 295.833,246.5 286.167,246.5 276.5,246.5C 276.5,245.833 276.5,245.167 276.5,244.5 Z"/></g>
<g><path style="opacity:0.435" fill="#7e7f7e" d="M 307.5,244.5 C 317.167,244.5 326.833,244.5 336.5,244.5C 336.5,245.167 336.5,245.833 336.5,246.5C 326.833,246.5 317.167,246.5 307.5,246.5C 307.5,245.833 307.5,245.167 307.5,244.5 Z"/></g>
<g><path style="opacity:0.435" fill="#7e7f7e" d="M 338.5,244.5 C 348.167,244.5 357.833,244.5 367.5,244.5C 367.5,245.167 367.5,245.833 367.5,246.5C 357.833,246.5 348.167,246.5 338.5,246.5C 338.5,245.833 338.5,245.167 338.5,244.5 Z"/></g>
<g><path style="opacity:0.435" fill="#7e7f7e" d="M 368.5,244.5 C 378.833,244.5 389.167,244.5 399.5,244.5C 399.5,245.167 399.5,245.833 399.5,246.5C 389.167,246.5 378.833,246.5 368.5,246.5C 368.5,245.833 368.5,245.167 368.5,244.5 Z"/></g>
<g><path style="opacity:0.4" fill="#7e7f7e" d="M 152.5,246.5 C 153.167,246.5 153.833,246.5 154.5,246.5C 154.5,256.167 154.5,265.833 154.5,275.5C 153.833,275.5 153.167,275.5 152.5,275.5C 152.5,265.833 152.5,256.167 152.5,246.5 Z"/></g>
<g><path style="opacity:0.398" fill="#7e7f7e" d="M 244.5,246.5 C 245.167,246.5 245.833,246.5 246.5,246.5C 246.5,256.167 246.5,265.833 246.5,275.5C 245.833,275.5 245.167,275.5 244.5,275.5C 244.5,265.833 244.5,256.167 244.5,246.5 Z"/></g>
<g><path style="opacity:0.4" fill="#7e7f7e" d="M 152.5,276.5 C 153.167,276.5 153.833,276.5 154.5,276.5C 154.5,286.167 154.5,295.833 154.5,305.5C 153.833,305.5 153.167,305.5 152.5,305.5C 152.5,295.833 152.5,286.167 152.5,276.5 Z"/></g>
<g><path style="opacity:0.398" fill="#7e7f7e" d="M 244.5,276.5 C 245.167,276.5 245.833,276.5 246.5,276.5C 246.5,286.167 246.5,295.833 246.5,305.5C 245.833,305.5 245.167,305.5 244.5,305.5C 244.5,295.833 244.5,286.167 244.5,276.5 Z"/></g>
<g><path style="opacity:0.4" fill="#7e7f7e" d="M 152.5,307.5 C 153.167,307.5 153.833,307.5 154.5,307.5C 154.5,317.167 154.5,326.833 154.5,336.5C 153.833,336.5 153.167,336.5 152.5,336.5C 152.5,326.833 152.5,317.167 152.5,307.5 Z"/></g>
<g><path style="opacity:0.398" fill="#7e7f7e" d="M 244.5,307.5 C 245.167,307.5 245.833,307.5 246.5,307.5C 246.5,317.167 246.5,326.833 246.5,336.5C 245.833,336.5 245.167,336.5 244.5,336.5C 244.5,326.833 244.5,317.167 244.5,307.5 Z"/></g>
<g><path style="opacity:0.4" fill="#7e7f7e" d="M 152.5,338.5 C 153.167,338.5 153.833,338.5 154.5,338.5C 154.5,348.167 154.5,357.833 154.5,367.5C 153.833,367.5 153.167,367.5 152.5,367.5C 152.5,357.833 152.5,348.167 152.5,338.5 Z"/></g>
<g><path style="opacity:0.398" fill="#7e7f7e" d="M 244.5,338.5 C 245.167,338.5 245.833,338.5 246.5,338.5C 246.5,348.167 246.5,357.833 246.5,367.5C 245.833,367.5 245.167,367.5 244.5,367.5C 244.5,357.833 244.5,348.167 244.5,338.5 Z"/></g>
<g><path style="opacity:0.4" fill="#7e7f7e" d="M 152.5,368.5 C 153.167,368.5 153.833,368.5 154.5,368.5C 154.5,378.833 154.5,389.167 154.5,399.5C 153.833,399.5 153.167,399.5 152.5,399.5C 152.5,389.167 152.5,378.833 152.5,368.5 Z"/></g>
<g><path style="opacity:0.398" fill="#7e7f7e" d="M 244.5,368.5 C 245.167,368.5 245.833,368.5 246.5,368.5C 246.5,378.833 246.5,389.167 246.5,399.5C 245.833,399.5 245.167,399.5 244.5,399.5C 244.5,389.167 244.5,378.833 244.5,368.5 Z"/></g>
</svg>
