<svg id="visual" viewBox="0 0 320 64" width="320" height="64" xmlns="http://www.w3.org/2000/svg" xmlns:xlink="http://www.w3.org/1999/xlink" version="1.1"><path d="M222 0L224.5 2.7C227 5.3 232 10.7 228.8 16C225.7 21.3 214.3 26.7 210.7 32C207 37.3 211 42.7 217 48C223 53.3 231 58.7 235 61.3L239 64L0 64L0 61.3C0 58.7 0 53.3 0 48C0 42.7 0 37.3 0 32C0 26.7 0 21.3 0 16C0 10.7 0 5.3 0 2.7L0 0Z" fill="#4098b7"></path><path d="M197 0L195.8 2.7C194.7 5.3 192.3 10.7 191.2 16C190 21.3 190 26.7 190.7 32C191.3 37.3 192.7 42.7 177.8 48C163 53.3 132 58.7 116.5 61.3L101 64L0 64L0 61.3C0 58.7 0 53.3 0 48C0 42.7 0 37.3 0 32C0 26.7 0 21.3 0 16C0 10.7 0 5.3 0 2.7L0 0Z" fill="#3d91b0"></path><path d="M145 0L147 2.7C149 5.3 153 10.7 146.5 16C140 21.3 123 26.7 127.7 32C132.3 37.3 158.7 42.7 155.5 48C152.3 53.3 119.7 58.7 103.3 61.3L87 64L0 64L0 61.3C0 58.7 0 53.3 0 48C0 42.7 0 37.3 0 32C0 26.7 0 21.3 0 16C0 10.7 0 5.3 0 2.7L0 0Z" fill="#398aa8"></path><path d="M98 0L93.3 2.7C88.7 5.3 79.3 10.7 77.7 16C76 21.3 82 26.7 91.5 32C101 37.3 114 42.7 121.8 48C129.7 53.3 132.3 58.7 133.7 61.3L135 64L0 64L0 61.3C0 58.7 0 53.3 0 48C0 42.7 0 37.3 0 32C0 26.7 0 21.3 0 16C0 10.7 0 5.3 0 2.7L0 0Z" fill="#3684a1"></path><path d="M70 0L69.5 2.7C69 5.3 68 10.7 69.3 16C70.7 21.3 74.3 26.7 82.8 32C91.3 37.3 104.7 42.7 111.2 48C117.7 53.3 117.3 58.7 117.2 61.3L117 64L0 64L0 61.3C0 58.7 0 53.3 0 48C0 42.7 0 37.3 0 32C0 26.7 0 21.3 0 16C0 10.7 0 5.3 0 2.7L0 0Z" fill="#337d9a"></path><path d="M53 0L55.7 2.7C58.3 5.3 63.7 10.7 64.2 16C64.7 21.3 60.3 26.7 67 32C73.7 37.3 91.3 42.7 94.2 48C97 53.3 85 58.7 79 61.3L73 64L0 64L0 61.3C0 58.7 0 53.3 0 48C0 42.7 0 37.3 0 32C0 26.7 0 21.3 0 16C0 10.7 0 5.3 0 2.7L0 0Z" fill="#307793"></path><path d="M47 0L55 2.7C63 5.3 79 10.7 86 16C93 21.3 91 26.7 85.2 32C79.3 37.3 69.7 42.7 67.3 48C65 53.3 70 58.7 72.5 61.3L75 64L0 64L0 61.3C0 58.7 0 53.3 0 48C0 42.7 0 37.3 0 32C0 26.7 0 21.3 0 16C0 10.7 0 5.3 0 2.7L0 0Z" fill="#2d708b"></path><path d="M52 0L47 2.7C42 5.3 32 10.7 35 16C38 21.3 54 26.7 54.3 32C54.7 37.3 39.3 42.7 32.5 48C25.7 53.3 27.3 58.7 28.2 61.3L29 64L0 64L0 61.3C0 58.7 0 53.3 0 48C0 42.7 0 37.3 0 32C0 26.7 0 21.3 0 16C0 10.7 0 5.3 0 2.7L0 0Z" fill="#2a6a84"></path><path d="M46 0L41.5 2.7C37 5.3 28 10.7 25.2 16C22.3 21.3 25.7 26.7 30 32C34.3 37.3 39.7 42.7 37.3 48C35 53.3 25 58.7 20 61.3L15 64L0 64L0 61.3C0 58.7 0 53.3 0 48C0 42.7 0 37.3 0 32C0 26.7 0 21.3 0 16C0 10.7 0 5.3 0 2.7L0 0Z" fill="#27647d"></path></svg>