<?xml version="1.0" encoding="UTF-8"?>
<!DOCTYPE svg PUBLIC "-//W3C//DTD SVG 1.1//EN" "http://www.w3.org/Graphics/SVG/1.1/DTD/svg11.dtd">
<svg xmlns="http://www.w3.org/2000/svg" version="1.1" width="800px" height="698px" style="shape-rendering:geometricPrecision; text-rendering:geometricPrecision; image-rendering:optimizeQuality; fill-rule:evenodd; clip-rule:evenodd" xmlns:xlink="http://www.w3.org/1999/xlink">
<g><path style="opacity:0.968" fill="#30328b" d="M 397.5,-0.5 C 398.833,-0.5 400.167,-0.5 401.5,-0.5C 533.815,88.3267 666.481,176.66 799.5,264.5C 799.5,266.5 799.5,268.5 799.5,270.5C 748.461,412.612 697.794,554.945 647.5,697.5C 482.167,697.5 316.833,697.5 151.5,697.5C 101.498,555.884 50.831,413.551 -0.5,270.5C -0.5,268.5 -0.5,266.5 -0.5,264.5C 132.519,176.66 265.185,88.3267 397.5,-0.5 Z"/></g>
<g><path style="opacity:1" fill="#c6e1ec" d="M 398.5,24.5 C 523.534,107.107 648.367,190.107 773,273.5C 772.854,277.959 771.854,282.292 770,286.5C 723.446,416.332 677.613,546.332 632.5,676.5C 477.167,676.5 321.833,676.5 166.5,676.5C 121.387,546.332 75.5537,416.332 29,286.5C 27.1461,282.292 26.1461,277.959 26,273.5C 150.343,190.637 274.51,107.637 398.5,24.5 Z"/></g>
<g><path style="opacity:1" fill="#fafcfb" d="M 511.5,129.5 C 513.833,129.5 516.167,129.5 518.5,129.5C 521.358,129.595 523.691,130.762 525.5,133C 523.598,135.484 521.765,137.984 520,140.5C 519.51,141.793 519.343,143.127 519.5,144.5C 518.178,144.33 517.011,144.663 516,145.5C 514,148.833 512,152.167 510,155.5C 509.506,157.134 509.34,158.801 509.5,160.5C 508.178,160.33 507.011,160.663 506,161.5C 504.839,164.267 503.673,166.933 502.5,169.5C 498.681,169.602 495.848,167.602 494,163.5C 492.14,155.885 491.64,148.218 492.5,140.5C 494.309,137.861 496.642,135.694 499.5,134C 503.793,133.101 507.793,131.601 511.5,129.5 Z"/></g>
<g><path style="opacity:1" fill="#ef932c" d="M 307.5,127.5 C 313.665,127.034 319.665,127.701 325.5,129.5C 316.489,151.509 300.156,160.842 276.5,157.5C 280.992,141.428 291.325,131.428 307.5,127.5 Z"/></g>
<g><path style="opacity:1" fill="#feec00" d="M 307.5,129.5 C 312.5,129.5 317.5,129.5 322.5,129.5C 319.031,143.135 310.364,151.635 296.5,155C 291.225,156.359 285.891,156.692 280.5,156C 279.978,155.439 279.645,154.772 279.5,154C 284.696,140.963 294.029,132.796 307.5,129.5 Z"/></g>
<g><path style="opacity:1" fill="#5fbe92" d="M 511.5,129.5 C 507.793,131.601 503.793,133.101 499.5,134C 496.642,135.694 494.309,137.861 492.5,140.5C 493.183,136.98 495.183,134.48 498.5,133C 502.602,132.117 506.435,130.617 510,128.5C 510.765,128.57 511.265,128.903 511.5,129.5 Z"/></g>
<g><path style="opacity:1" fill="#0d9d50" d="M 544.5,164.5 C 544.5,165.167 544.5,165.833 544.5,166.5C 543.011,168.645 542.011,170.978 541.5,173.5C 540.209,173.263 539.209,173.596 538.5,174.5C 527.127,178.997 516.127,178.33 505.5,172.5C 504.5,171.5 503.5,170.5 502.5,169.5C 503.673,166.933 504.839,164.267 506,161.5C 507.011,160.663 508.178,160.33 509.5,160.5C 509.34,158.801 509.506,157.134 510,155.5C 512,152.167 514,148.833 516,145.5C 517.011,144.663 518.178,144.33 519.5,144.5C 519.343,143.127 519.51,141.793 520,140.5C 521.765,137.984 523.598,135.484 525.5,133C 523.691,130.762 521.358,129.595 518.5,129.5C 516.708,128.691 514.708,128.191 512.5,128C 516.738,127.177 520.738,127.844 524.5,130C 528.818,134.597 533.318,139.097 538,143.5C 542.886,149.658 545.053,156.658 544.5,164.5 Z"/></g>
<g><path style="opacity:1" fill="#5dbe8f" d="M 579.5,166.5 C 576.033,162.717 571.699,160.717 566.5,160.5C 561.292,161.923 555.959,162.756 550.5,163C 548.612,164.394 546.612,165.56 544.5,166.5C 544.5,165.833 544.5,165.167 544.5,164.5C 551.339,161.1 558.672,159.433 566.5,159.5C 570.067,159.411 573.4,160.245 576.5,162C 578.141,163.129 579.141,164.629 579.5,166.5 Z"/></g>
<g><path style="opacity:1" fill="#fbfcfc" d="M 579.5,166.5 C 578.526,168.085 577.026,169.085 575,169.5C 574.517,170.448 574.351,171.448 574.5,172.5C 571.09,172.384 569.756,174.05 570.5,177.5C 567.05,176.756 565.384,178.09 565.5,181.5C 562.167,181.5 560.5,183.167 560.5,186.5C 557.09,186.384 555.756,188.05 556.5,191.5C 553.05,190.756 551.384,192.09 551.5,195.5C 548.09,195.384 546.756,197.05 547.5,200.5C 543.416,198.908 540.916,195.908 540,191.5C 539.951,185.469 540.451,179.469 541.5,173.5C 542.011,170.978 543.011,168.645 544.5,166.5C 546.612,165.56 548.612,164.394 550.5,163C 555.959,162.756 561.292,161.923 566.5,160.5C 571.699,160.717 576.033,162.717 579.5,166.5 Z"/></g>
<g><path style="opacity:1" fill="#5cbd91" d="M 492.5,140.5 C 491.64,148.218 492.14,155.885 494,163.5C 495.848,167.602 498.681,169.602 502.5,169.5C 503.5,170.5 504.5,171.5 505.5,172.5C 498.893,172.065 494.393,168.732 492,162.5C 491.61,157.156 491.11,151.822 490.5,146.5C 490.361,144.117 491.028,142.117 492.5,140.5 Z"/></g>
<g><path style="opacity:1" fill="#0e9d50" d="M 579.5,166.5 C 585.424,172.663 589.59,179.997 592,188.5C 592.499,192.486 592.666,196.486 592.5,200.5C 591.28,202.05 591.28,203.716 592.5,205.5C 589.167,206.833 586.833,209.167 585.5,212.5C 584.833,212.5 584.167,212.5 583.5,212.5C 577.916,213.618 572.249,213.785 566.5,213C 559.5,210.505 553.167,207.005 547.5,202.5C 547.5,201.833 547.5,201.167 547.5,200.5C 546.756,197.05 548.09,195.384 551.5,195.5C 551.384,192.09 553.05,190.756 556.5,191.5C 555.756,188.05 557.09,186.384 560.5,186.5C 560.5,183.167 562.167,181.5 565.5,181.5C 565.384,178.09 567.05,176.756 570.5,177.5C 569.756,174.05 571.09,172.384 574.5,172.5C 574.351,171.448 574.517,170.448 575,169.5C 577.026,169.085 578.526,168.085 579.5,166.5 Z"/></g>
<g><path style="opacity:1" fill="#63c095" d="M 538.5,174.5 C 539.209,173.596 540.209,173.263 541.5,173.5C 540.451,179.469 539.951,185.469 540,191.5C 540.916,195.908 543.416,198.908 547.5,200.5C 547.5,201.167 547.5,201.833 547.5,202.5C 543.492,200.658 540.659,197.658 539,193.5C 538.924,186.984 538.757,180.65 538.5,174.5 Z"/></g>
<g><path style="opacity:1" fill="#383a90" d="M 385.5,218.5 C 384.432,217.566 383.099,217.232 381.5,217.5C 381.5,220.833 381.5,224.167 381.5,227.5C 380.5,227.5 379.5,227.5 378.5,227.5C 378.111,219.836 377.778,212.17 377.5,204.5C 381.463,203.56 385.463,203.393 389.5,204C 394.726,208.251 394.726,212.585 389.5,217C 391.892,219.728 393.892,222.728 395.5,226C 393.741,226.798 392.074,226.631 390.5,225.5C 389.057,222.923 387.39,220.59 385.5,218.5 Z"/></g>
<g><path style="opacity:1" fill="#3c3e92" d="M 402.5,203.5 C 404.288,203.215 405.955,203.548 407.5,204.5C 410.426,211.675 412.759,219.009 414.5,226.5C 413.167,226.5 411.833,226.5 410.5,226.5C 411.176,222.51 409.51,220.843 405.5,221.5C 401.092,221.077 399.425,223.077 400.5,227.5C 399.167,227.5 397.833,227.5 396.5,227.5C 397.883,219.35 399.883,211.35 402.5,203.5 Z"/></g>
<g><path style="opacity:1" fill="#fbfcfb" d="M 624.5,216.5 C 621.626,217.844 618.626,219.01 615.5,220C 614.663,221.011 614.33,222.178 614.5,223.5C 612.801,223.34 611.134,223.506 609.5,224C 607.974,225.887 605.974,226.887 603.5,227C 602.663,228.011 602.33,229.178 602.5,230.5C 600.801,230.34 599.134,230.506 597.5,231C 595.041,232.693 592.708,234.526 590.5,236.5C 588.922,237.298 587.256,237.798 585.5,238C 584.874,238.75 584.374,239.584 584,240.5C 582.961,239.29 581.794,238.29 580.5,237.5C 578.255,230.757 579.422,224.757 584,219.5C 584.29,217.08 584.79,214.746 585.5,212.5C 586.833,209.167 589.167,206.833 592.5,205.5C 601.193,204.455 609.86,204.955 618.5,207C 621.648,209.109 623.981,211.942 625.5,215.5C 625.376,216.107 625.043,216.44 624.5,216.5 Z"/></g>
<g><path style="opacity:1" fill="#383a90" d="M 420.5,205.5 C 421.5,205.5 422.5,205.5 423.5,205.5C 423.5,208.833 423.5,212.167 423.5,215.5C 426.167,215.5 428.833,215.5 431.5,215.5C 431.5,212.5 431.5,209.5 431.5,206.5C 432.833,206.5 434.167,206.5 435.5,206.5C 434.8,214.204 433.8,221.871 432.5,229.5C 431.5,229.5 430.5,229.5 429.5,229.5C 429.5,226.167 429.5,222.833 429.5,219.5C 427.051,218.943 424.718,218.943 422.5,219.5C 421.593,222.421 421.26,225.421 421.5,228.5C 420.167,228.5 418.833,228.5 417.5,228.5C 418.337,220.816 419.337,213.15 420.5,205.5 Z"/></g>
<g><path style="opacity:1" fill="#65c096" d="M 592.5,200.5 C 592.5,201.5 592.5,202.5 592.5,203.5C 600.872,202.639 609.206,203.139 617.5,205C 622.608,207.701 625.941,211.867 627.5,217.5C 626.209,217.737 625.209,217.404 624.5,216.5C 625.043,216.44 625.376,216.107 625.5,215.5C 623.981,211.942 621.648,209.109 618.5,207C 609.86,204.955 601.193,204.455 592.5,205.5C 591.28,203.716 591.28,202.05 592.5,200.5 Z"/></g>
<g><path style="opacity:1" fill="#3c3d92" d="M 359.5,206.5 C 364.489,205.391 368.156,207.058 370.5,211.5C 369.672,212.415 368.672,213.081 367.5,213.5C 364.915,210.136 362.082,209.803 359,212.5C 357.877,217.436 358.71,221.936 361.5,226C 366.159,227.651 368.826,226.151 369.5,221.5C 367.833,221.5 366.167,221.5 364.5,221.5C 364.5,220.167 364.5,218.833 364.5,217.5C 367.127,216.908 369.794,216.575 372.5,216.5C 375.216,227.784 370.883,232.117 359.5,229.5C 354.728,224.444 353.228,218.444 355,211.5C 356.025,209.313 357.525,207.646 359.5,206.5 Z"/></g>
<g><path style="opacity:1" fill="#b4cce1" d="M 381.5,207.5 C 383.857,207.337 386.19,207.503 388.5,208C 389.833,209.667 389.833,211.333 388.5,213C 386.19,213.497 383.857,213.663 381.5,213.5C 381.5,211.5 381.5,209.5 381.5,207.5 Z"/></g>
<g><path style="opacity:1" fill="#b4cce1" d="M 404.5,209.5 C 406.267,211.792 407.267,214.458 407.5,217.5C 406.167,217.5 404.833,217.5 403.5,217.5C 403.401,214.763 403.735,212.096 404.5,209.5 Z"/></g>
<g><path style="opacity:1" fill="#393b90" d="M 450.5,211.5 C 453.359,211.801 454.693,213.467 454.5,216.5C 453.989,223.514 453.323,230.514 452.5,237.5C 450.119,235.902 448.952,233.568 449,230.5C 446.895,229.689 444.895,228.689 443,227.5C 441.63,229.203 439.964,230.536 438,231.5C 436.941,231.37 436.108,230.87 435.5,230C 440.334,223.669 445.334,217.503 450.5,211.5 Z"/></g>
<g><path style="opacity:1" fill="#3a3c91" d="M 331.5,215.5 C 335.539,214.66 338.539,215.993 340.5,219.5C 340.113,220.72 339.28,221.387 338,221.5C 336.395,219.936 334.562,219.436 332.5,220C 330.993,220.837 330.493,222.004 331,223.5C 334.411,224.293 337.911,224.793 341.5,225C 347.092,230.167 346.759,234.833 340.5,239C 335.754,240.458 332.42,238.958 330.5,234.5C 331.167,234.167 331.833,233.833 332.5,233.5C 337.858,237.089 340.858,235.756 341.5,229.5C 331.253,232.401 326.753,228.734 328,218.5C 329.145,217.364 330.312,216.364 331.5,215.5 Z"/></g>
<g><path style="opacity:1" fill="#0c9c4f" d="M 624.5,216.5 C 625.209,217.404 626.209,217.737 627.5,217.5C 633.681,230.362 634.014,243.362 628.5,256.5C 628.5,256.833 628.5,257.167 628.5,257.5C 624.614,259.055 621.28,261.388 618.5,264.5C 610.389,263.057 602.722,259.89 595.5,255C 591.043,250.554 586.709,246.054 582.5,241.5C 581.37,240.378 580.703,239.044 580.5,237.5C 581.794,238.29 582.961,239.29 584,240.5C 584.374,239.584 584.874,238.75 585.5,238C 587.256,237.798 588.922,237.298 590.5,236.5C 592.708,234.526 595.041,232.693 597.5,231C 599.134,230.506 600.801,230.34 602.5,230.5C 602.33,229.178 602.663,228.011 603.5,227C 605.974,226.887 607.974,225.887 609.5,224C 611.134,223.506 612.801,223.34 614.5,223.5C 614.33,222.178 614.663,221.011 615.5,220C 618.626,219.01 621.626,217.844 624.5,216.5 Z"/></g>
<g><path style="opacity:1" fill="#b2c9df" d="M 448.5,218.5 C 450.344,220.279 451.01,222.612 450.5,225.5C 448.335,225.884 446.668,225.217 445.5,223.5C 446.952,222.06 447.952,220.394 448.5,218.5 Z"/></g>
<g><path style="opacity:1" fill="#3b3d92" d="M 473.5,219.5 C 475.818,219.818 477.152,221.152 477.5,223.5C 474.698,237.976 476.532,239.309 483,227.5C 484.011,226.663 485.178,226.33 486.5,226.5C 483.301,233.89 479.301,240.89 474.5,247.5C 472.545,246.72 471.545,245.22 471.5,243C 474.252,228.651 472.418,227.484 466,239.5C 464.989,240.337 463.822,240.67 462.5,240.5C 465.718,233.277 469.384,226.277 473.5,219.5 Z"/></g>
<g><path style="opacity:1" fill="#6e79b3" d="M 385.5,218.5 C 384.5,218.5 383.5,218.5 382.5,218.5C 382.5,221.833 382.5,225.167 382.5,228.5C 380.901,228.768 379.568,228.434 378.5,227.5C 379.5,227.5 380.5,227.5 381.5,227.5C 381.5,224.167 381.5,220.833 381.5,217.5C 383.099,217.232 384.432,217.566 385.5,218.5 Z"/></g>
<g><path style="opacity:1" fill="#3b3c91" d="M 313.5,225.5 C 314.552,225.351 315.552,225.517 316.5,226C 321.833,231.667 327.167,237.333 332.5,243C 329.99,245.3 327.99,244.966 326.5,242C 320.744,241.134 317.91,243.634 318,249.5C 317.311,250.357 316.478,251.023 315.5,251.5C 313.775,242.809 313.109,234.142 313.5,225.5 Z"/></g>
<g><path style="opacity:1" fill="#393b91" d="M 490.5,229.5 C 492.252,229.418 493.252,230.251 493.5,232C 490.881,236.068 488.381,240.234 486,244.5C 484.5,249.667 486.333,251.5 491.5,250C 494.251,245.163 497.251,240.497 500.5,236C 501.965,235.399 502.965,235.899 503.5,237.5C 500.422,243.408 496.755,248.908 492.5,254C 482.507,255.206 479.34,251.039 483,241.5C 485.761,237.64 488.261,233.64 490.5,229.5 Z"/></g>
<g><path style="opacity:1" fill="#5bbd8c" d="M 583.5,212.5 C 584.167,212.5 584.833,212.5 585.5,212.5C 584.79,214.746 584.29,217.08 584,219.5C 579.422,224.757 578.255,230.757 580.5,237.5C 579.778,237.082 579.278,236.416 579,235.5C 578.333,231.833 578.333,228.167 579,224.5C 579.26,222.382 580.26,220.716 582,219.5C 582.662,217.187 583.162,214.854 583.5,212.5 Z"/></g>
<g><path style="opacity:1" fill="#3b3d91" d="M 301.5,232.5 C 302.922,232.75 303.922,233.583 304.5,235C 303.167,236.333 301.833,237.667 300.5,239C 304,243.833 307.5,248.667 311,253.5C 311.183,256.282 310.016,256.949 307.5,255.5C 304.289,250.911 300.955,246.411 297.5,242C 295.893,241.885 294.393,242.385 293,243.5C 291.72,243.387 290.887,242.72 290.5,241.5C 294.014,238.253 297.68,235.253 301.5,232.5 Z"/></g>
<g><path style="opacity:1" fill="#bad3e4" d="M 316.5,232.5 C 318.479,233.812 320.145,235.479 321.5,237.5C 320.672,238.415 319.672,239.081 318.5,239.5C 317.056,237.392 316.39,235.059 316.5,232.5 Z"/></g>
<g><path style="opacity:1" fill="#3b3c91" d="M 507.5,245.5 C 515.161,244.663 518.661,247.996 518,255.5C 516.989,256.337 515.822,256.67 514.5,256.5C 514.662,254.473 514.495,252.473 514,250.5C 511.778,247.697 509.945,247.863 508.5,251C 510.372,253.746 511.706,256.746 512.5,260C 511.296,266.106 507.629,268.439 501.5,267C 497.632,264.838 496.132,261.672 497,257.5C 497.576,254.876 498.91,254.209 501,255.5C 501.333,257.833 501.667,260.167 502,262.5C 503.667,263.833 505.333,263.833 507,262.5C 506.809,258.752 505.976,255.085 504.5,251.5C 504.628,249.045 505.628,247.045 507.5,245.5 Z"/></g>
<g><path style="opacity:1" fill="#3a3c91" d="M 284.5,245.5 C 290.409,249.902 295.909,254.902 301,260.5C 301.925,263.134 301.091,264.301 298.5,264C 294.033,258.532 289.2,253.365 284,248.5C 283.53,247.423 283.697,246.423 284.5,245.5 Z"/></g>
<g><path style="opacity:1" fill="#393a90" d="M 274.5,253.5 C 276.857,253.337 279.19,253.503 281.5,254C 281.957,254.414 282.291,254.914 282.5,255.5C 280.941,257.131 278.941,257.964 276.5,258C 274.606,259.079 274.273,260.413 275.5,262C 279.169,261.918 282.669,261.085 286,259.5C 291.866,260.365 294.199,263.699 293,269.5C 289.937,274.869 285.771,275.869 280.5,272.5C 281.253,269.399 282.919,268.732 285.5,270.5C 289.267,269.59 290.267,267.424 288.5,264C 284.807,264.422 281.307,265.588 278,267.5C 270.77,264.496 269.604,259.829 274.5,253.5 Z"/></g>
<g><path style="opacity:1" fill="#fbfcfb" d="M 628.5,257.5 C 631.187,257.336 633.854,257.503 636.5,258C 642.409,260.456 648.409,262.789 654.5,265C 657.949,268.065 659.616,271.898 659.5,276.5C 657.585,276.216 655.919,276.549 654.5,277.5C 653.849,278.091 653.182,278.757 652.5,279.5C 649.615,278.103 647.282,278.77 645.5,281.5C 642.755,280.025 640.588,280.691 639,283.5C 636.119,281.972 633.786,282.638 632,285.5C 629.119,283.972 626.786,284.638 625,287.5C 622.175,285.916 620.008,286.582 618.5,289.5C 615.495,287.741 613.495,288.408 612.5,291.5C 607.341,282.391 609.008,274.557 617.5,268C 617.989,266.862 618.322,265.695 618.5,264.5C 621.28,261.388 624.614,259.055 628.5,257.5 Z"/></g>
<g><path style="opacity:1" fill="#3a3c91" d="M 526.5,259.5 C 528.384,259.712 529.717,260.712 530.5,262.5C 527.273,269.955 523.773,277.288 520,284.5C 516.986,282.466 516.819,280.132 519.5,277.5C 518.018,275.517 516.351,273.684 514.5,272C 512.822,272.112 511.155,272.612 509.5,273.5C 508,273.547 507,272.881 506.5,271.5C 513.23,267.474 519.897,263.474 526.5,259.5 Z"/></g>
<g><path style="opacity:1" fill="#5abc8d" d="M 628.5,257.5 C 628.5,257.167 628.5,256.833 628.5,256.5C 631.85,256.335 635.183,256.502 638.5,257C 644.079,259.439 649.745,261.772 655.5,264C 660.778,269.066 662.778,275.233 661.5,282.5C 661.22,278.241 658.886,276.574 654.5,277.5C 655.919,276.549 657.585,276.216 659.5,276.5C 659.616,271.898 657.949,268.065 654.5,265C 648.409,262.789 642.409,260.456 636.5,258C 633.854,257.503 631.187,257.336 628.5,257.5 Z"/></g>
<g><path style="opacity:1" fill="#393b90" d="M 263.5,267.5 C 271.219,266.553 274.553,269.886 273.5,277.5C 277.306,277.412 280.973,278.079 284.5,279.5C 283.788,281.046 282.622,282.046 281,282.5C 268,278.638 266.5,280.971 276.5,289.5C 276.113,290.72 275.28,291.387 274,291.5C 267.711,287.046 261.878,282.046 256.5,276.5C 259.084,273.651 261.417,270.651 263.5,267.5 Z"/></g>
<g><path style="opacity:1" fill="#bad3e5" d="M 523.5,265.5 C 523.973,267.97 523.139,270.304 521,272.5C 519.978,271.646 519.145,270.646 518.5,269.5C 520.015,267.918 521.681,266.584 523.5,265.5 Z"/></g>
<g><path style="opacity:1" fill="#bcd6e6" d="M 265.5,271.5 C 267.912,271.244 269.579,272.244 270.5,274.5C 269.444,276.646 267.944,278.312 266,279.5C 264.167,279 263,277.833 262.5,276C 263.315,274.357 264.315,272.857 265.5,271.5 Z"/></g>
<g><path style="opacity:1" fill="#383a90" d="M 540.5,275.5 C 543.076,275.722 543.91,277.055 543,279.5C 540.167,283.667 537.333,287.833 534.5,292C 538.966,290.434 543.3,288.267 547.5,285.5C 548.287,286.242 548.953,287.075 549.5,288C 542.997,292.086 536.33,295.919 529.5,299.5C 527.717,298.652 527.217,297.319 528,295.5C 530.71,291.247 533.543,287.08 536.5,283C 532.034,284.566 527.7,286.733 523.5,289.5C 522.713,288.758 522.047,287.925 521.5,287C 527.897,283.141 534.23,279.308 540.5,275.5 Z"/></g>
<g><path style="opacity:1" fill="#069c4e" d="M 654.5,277.5 C 658.886,276.574 661.22,278.241 661.5,282.5C 664.023,295.403 661.357,307.07 653.5,317.5C 651.961,318.767 650.294,319.767 648.5,320.5C 646.5,321.167 644.5,321.833 642.5,322.5C 641.292,321.766 639.959,321.433 638.5,321.5C 632.141,319.571 626.641,316.238 622,311.5C 617.718,305.932 614.218,299.932 611.5,293.5C 611.833,292.833 612.167,292.167 612.5,291.5C 613.495,288.408 615.495,287.741 618.5,289.5C 620.008,286.582 622.175,285.916 625,287.5C 626.786,284.638 629.119,283.972 632,285.5C 633.786,282.638 636.119,281.972 639,283.5C 640.588,280.691 642.755,280.025 645.5,281.5C 647.282,278.77 649.615,278.103 652.5,279.5C 653.182,278.757 653.849,278.091 654.5,277.5 Z"/></g>
<g><path style="opacity:1" fill="#60bf92" d="M 618.5,264.5 C 618.322,265.695 617.989,266.862 617.5,268C 609.008,274.557 607.341,282.391 612.5,291.5C 612.167,292.167 611.833,292.833 611.5,293.5C 606.557,286.685 606.39,279.685 611,272.5C 613.972,270.136 616.472,267.47 618.5,264.5 Z"/></g>
<g><path style="opacity:1" fill="#3a3c91" d="M 250.5,284.5 C 252.103,284.312 253.437,284.812 254.5,286C 252.298,288.882 251.131,292.049 251,295.5C 251.837,297.007 253.004,297.507 254.5,297C 255.794,294.913 256.961,292.746 258,290.5C 259.826,289.159 260.993,289.659 261.5,292C 260.5,294.333 259.5,296.667 258.5,299C 259.697,300.52 261.197,301.687 263,302.5C 264.667,299.833 266.333,297.167 268,294.5C 270.829,293.326 271.829,294.326 271,297.5C 269.04,300.585 267.207,303.752 265.5,307C 258.453,304.225 251.62,300.725 245,296.5C 246.496,292.498 248.329,288.498 250.5,284.5 Z"/></g>
<g><path style="opacity:1" fill="#3a3c91" d="M 548.5,290.5 C 549.822,290.33 550.989,290.663 552,291.5C 554.366,295.036 556.533,298.703 558.5,302.5C 557.758,303.287 556.925,303.953 556,304.5C 554.66,303.132 553.326,301.799 552,300.5C 546.478,304.177 540.645,307.177 534.5,309.5C 534.297,307.61 534.963,306.11 536.5,305C 540.75,302.626 544.916,300.126 549,297.5C 549.536,295.433 549.036,293.599 547.5,292C 548.056,291.617 548.389,291.117 548.5,290.5 Z"/></g>
<g><path style="opacity:1" fill="#34368d" d="M 488.5,362.5 C 487.624,362.369 486.957,362.702 486.5,363.5C 487.77,364.288 488.77,365.288 489.5,366.5C 489.5,366.833 489.5,367.167 489.5,367.5C 488.761,367.369 488.094,367.536 487.5,368C 488.942,368.377 489.942,369.21 490.5,370.5C 489.604,373.069 487.938,375.069 485.5,376.5C 484.5,375.167 483.5,373.833 482.5,372.5C 481.958,369.214 480.958,366.214 479.5,363.5C 475.038,346.523 470.705,329.523 466.5,312.5C 446.312,306.788 425.978,306.121 405.5,310.5C 404.504,324.657 404.171,338.99 404.5,353.5C 400.467,351.996 398.3,348.996 398,344.5C 394.997,342.647 395.164,340.814 398.5,339C 397.263,338.768 396.263,338.268 395.5,337.5C 394.528,328.25 394.195,318.917 394.5,309.5C 393.167,309.5 391.833,309.5 390.5,309.5C 371.286,306.136 352.286,306.97 333.5,312C 329.093,325.644 325.426,339.478 322.5,353.5C 320.989,352.498 319.322,351.831 317.5,351.5C 317.5,350.5 317.5,349.5 317.5,348.5C 316.5,348.5 315.5,348.5 314.5,348.5C 317.775,334.565 321.442,320.732 325.5,307C 325.905,306.055 326.572,305.388 327.5,305C 351.034,297.272 374.867,296.439 399,302.5C 424.119,296.473 448.953,297.473 473.5,305.5C 478.344,324.542 483.344,343.542 488.5,362.5 Z"/></g>
<g><path style="opacity:1" fill="#3b3d92" d="M 242.5,299.5 C 248.461,304.29 254.294,309.29 260,314.5C 260.72,316.112 260.554,317.612 259.5,319C 251.55,318.647 243.717,317.481 236,315.5C 235.383,314.551 235.549,313.718 236.5,313C 237.667,312.833 238.833,312.667 240,312.5C 244.482,313.533 248.982,314.033 253.5,314C 249.367,310.869 245.534,307.369 242,303.5C 241.421,302.072 241.588,300.738 242.5,299.5 Z"/></g>
<g><path style="opacity:1" fill="#f8fbfa" d="M 479.5,363.5 C 476.972,362.989 474.472,362.322 472,361.5C 469.587,362.585 467.087,363.585 464.5,364.5C 463.914,364.291 463.414,363.957 463,363.5C 462.411,366.79 463.911,368.29 467.5,368C 468.842,370.892 471.175,372.225 474.5,372C 472.866,372.494 471.199,372.66 469.5,372.5C 469.5,373.5 469.5,374.5 469.5,375.5C 470.5,375.5 471.5,375.5 472.5,375.5C 472.117,380.468 473.784,381.468 477.5,378.5C 480.074,380.024 482.741,381.358 485.5,382.5C 488.675,395.534 492.009,408.534 495.5,421.5C 495.167,421.833 494.833,422.167 494.5,422.5C 465.011,410.25 435.677,410.583 406.5,423.5C 405.507,418.88 405.173,414.214 405.5,409.5C 407.367,409.955 409.2,410.622 411,411.5C 411.833,411.167 412.667,410.833 413.5,410.5C 411.891,407.106 409.224,405.773 405.5,406.5C 405.5,400.5 405.5,394.5 405.5,388.5C 407.5,388.5 409.5,388.5 411.5,388.5C 411.5,383.5 411.5,378.5 411.5,373.5C 414.487,373.422 415.153,374.589 413.5,377C 414.101,378.605 415.101,379.938 416.5,381C 415.167,382 415.167,383 416.5,384C 418.298,383.994 419.965,383.661 421.5,383C 419.903,388.415 421.236,389.415 425.5,386C 425.014,383.973 425.014,381.807 425.5,379.5C 424.178,379.67 423.011,379.337 422,378.5C 420.541,375.23 419.374,371.897 418.5,368.5C 420.143,368.52 421.476,367.853 422.5,366.5C 423.736,367.246 425.07,367.579 426.5,367.5C 426.5,365.833 426.5,364.167 426.5,362.5C 421.602,362.374 417.269,363.707 413.5,366.5C 409.942,364.877 408.776,362.21 410,358.5C 417.108,357.635 424.274,357.468 431.5,358C 432.64,356.027 433.973,354.193 435.5,352.5C 433.438,351.239 431.772,351.739 430.5,354C 425.036,354.852 419.702,354.352 414.5,352.5C 412.653,353.511 410.82,354.511 409,355.5C 408.139,358.731 406.972,361.731 405.5,364.5C 405.5,346.5 405.5,328.5 405.5,310.5C 425.978,306.121 446.312,306.788 466.5,312.5C 470.705,329.523 475.038,346.523 479.5,363.5 Z"/></g>
<g><path style="opacity:1" fill="#fafbfb" d="M 390.5,309.5 C 391.209,310.404 392.209,310.737 393.5,310.5C 393.5,319.5 393.5,328.5 393.5,337.5C 388.187,336.115 385.687,338.115 386,343.5C 383.764,345.516 382.264,348.016 381.5,351C 378.364,352.5 375.198,352.666 372,351.5C 369.523,352.969 366.857,353.969 364,354.5C 360.59,354.103 357.924,352.436 356,349.5C 353.726,350.928 352.559,353.095 352.5,356C 352.875,359.558 353.875,362.891 355.5,366C 356.448,366.483 357.448,366.649 358.5,366.5C 358.508,369.545 358.841,372.545 359.5,375.5C 362.167,375.5 364.833,375.5 367.5,375.5C 367.281,376.675 367.614,377.675 368.5,378.5C 372.438,376.237 376.438,376.07 380.5,378C 381.071,379.205 381.738,380.372 382.5,381.5C 384.332,380.752 385.999,379.752 387.5,378.5C 388.167,378.833 388.833,379.167 389.5,379.5C 390.932,375.987 391.765,372.32 392,368.5C 392.383,367.944 392.883,367.611 393.5,367.5C 393.5,378.833 393.5,390.167 393.5,401.5C 390.192,399.716 388.525,400.716 388.5,404.5C 390.292,404.366 391.958,404.699 393.5,405.5C 393.829,411.537 393.496,417.537 392.5,423.5C 363.305,410.758 333.971,410.425 304.5,422.5C 304.167,422 303.833,421.5 303.5,421C 308.047,406.312 312.047,391.479 315.5,376.5C 320.648,380.686 325.815,385.019 331,389.5C 332.796,388.233 334.629,388.233 336.5,389.5C 337.645,390.776 337.645,392.109 336.5,393.5C 338.482,394.216 340.149,395.383 341.5,397C 348.033,397.745 354.366,399.079 360.5,401C 364.373,401.27 368.206,401.77 372,402.5C 374.549,401.656 377.049,401.989 379.5,403.5C 381.596,401.932 383.262,402.266 384.5,404.5C 385.833,403.833 386.833,402.833 387.5,401.5C 384.215,400.741 381.215,399.408 378.5,397.5C 376.425,398.762 374.425,398.595 372.5,397C 374.5,396.667 376.5,396.333 378.5,396C 378.957,395.586 379.291,395.086 379.5,394.5C 374.057,393.938 368.724,392.938 363.5,391.5C 359.783,393.344 355.783,394.011 351.5,393.5C 351.5,392.5 351.5,391.5 351.5,390.5C 347.233,390.248 343.066,389.581 339,388.5C 338.501,384.179 338.334,379.846 338.5,375.5C 340.346,375.778 341.68,375.111 342.5,373.5C 340.649,371.224 338.982,368.891 337.5,366.5C 335.528,367.305 334.028,368.639 333,370.5C 331.885,369 331.052,367.333 330.5,365.5C 329.372,364.738 328.205,364.071 327,363.5C 328.514,358.891 327.014,355.558 322.5,353.5C 325.426,339.478 329.093,325.644 333.5,312C 352.286,306.97 371.286,306.136 390.5,309.5 Z"/></g>
<g><path style="opacity:1" fill="#5259a0" d="M 390.5,309.5 C 391.833,309.5 393.167,309.5 394.5,309.5C 394.195,318.917 394.528,328.25 395.5,337.5C 394.833,337.5 394.167,337.5 393.5,337.5C 393.5,328.5 393.5,319.5 393.5,310.5C 392.209,310.737 391.209,310.404 390.5,309.5 Z"/></g>
<g><path style="opacity:1" fill="#5862a2" d="M 405.5,310.5 C 405.5,328.5 405.5,346.5 405.5,364.5C 405.784,366.415 405.451,368.081 404.5,369.5C 404.818,364.968 404.485,360.634 403.5,356.5C 404.11,355.609 404.443,354.609 404.5,353.5C 404.171,338.99 404.504,324.657 405.5,310.5 Z"/></g>
<g><path style="opacity:1" fill="#3d3f93" d="M 537.5,313.5 C 546.167,313.5 554.833,313.5 563.5,313.5C 563.657,314.873 563.49,316.207 563,317.5C 557.258,322.287 551.425,326.953 545.5,331.5C 544.28,331.113 543.613,330.28 543.5,329C 547.808,326.579 548.475,323.413 545.5,319.5C 543.577,318.692 541.577,318.192 539.5,318C 537.963,316.89 537.297,315.39 537.5,313.5 Z"/></g>
<g><path style="opacity:1" fill="#bad3e4" d="M 549.5,317.5 C 558.265,316.578 558.765,318.245 551,322.5C 549.991,320.975 549.491,319.308 549.5,317.5 Z"/></g>
<g><path style="opacity:1" fill="#fafcfb" d="M 648.5,320.5 C 655.951,319.593 661.951,322.093 666.5,328C 677.087,331.688 680.754,338.521 677.5,348.5C 675.46,345.866 673.293,345.866 671,348.5C 668.541,345.9 666.041,345.9 663.5,348.5C 660.658,345.717 658.158,346.05 656,349.5C 655.044,348.106 653.711,347.439 652,347.5C 649.667,348.833 647.333,348.833 645,347.5C 643.289,347.439 641.956,348.106 641,349.5C 638.541,346.9 636.041,346.9 633.5,349.5C 631.322,346.962 629.322,346.962 627.5,349.5C 624.899,345.011 625.065,340.344 628,335.5C 633.247,331.594 638.08,327.261 642.5,322.5C 644.5,321.833 646.5,321.167 648.5,320.5 Z"/></g>
<g><path style="opacity:1" fill="#3b3d92" d="M 232.5,321.5 C 240.05,323.905 247.716,325.905 255.5,327.5C 255.853,329.635 255.02,330.968 253,331.5C 246.167,329.388 239.334,327.388 232.5,325.5C 232.5,324.167 232.5,322.833 232.5,321.5 Z"/></g>
<g><path style="opacity:1" fill="#51b987" d="M 653.5,317.5 C 656.352,319.076 659.352,320.576 662.5,322C 667.941,325.807 673.108,329.973 678,334.5C 680.495,339.448 680.995,344.448 679.5,349.5C 678.508,349.672 677.842,349.338 677.5,348.5C 680.754,338.521 677.087,331.688 666.5,328C 661.951,322.093 655.951,319.593 648.5,320.5C 650.294,319.767 651.961,318.767 653.5,317.5 Z"/></g>
<g><path style="opacity:1" fill="#3a3c91" d="M 230.5,329.5 C 238.357,330.952 246.023,333.118 253.5,336C 252.663,337.011 252.33,338.178 252.5,339.5C 247.088,339.791 241.755,340.624 236.5,342C 240.284,343.985 244.284,345.485 248.5,346.5C 249.386,347.325 249.719,348.325 249.5,349.5C 242.032,348.3 234.699,346.466 227.5,344C 226.167,342.667 226.167,341.333 227.5,340C 232.808,338.726 238.141,337.56 243.5,336.5C 239.143,335.158 234.81,333.825 230.5,332.5C 230.5,331.5 230.5,330.5 230.5,329.5 Z"/></g>
<g><path style="opacity:1" fill="#3b3c91" d="M 563.5,329.5 C 565.5,329.5 567.5,329.5 569.5,329.5C 570.167,334.16 570.333,338.826 570,343.5C 565.484,347.822 561.484,347.488 558,342.5C 556,345.833 553.333,348.5 550,350.5C 548.368,348.973 548.201,347.307 549.5,345.5C 553.497,343.195 555.83,339.861 556.5,335.5C 552.915,336.583 549.249,337.249 545.5,337.5C 545.5,336.167 545.5,334.833 545.5,333.5C 551.711,332.582 557.711,331.249 563.5,329.5 Z"/></g>
<g><path style="opacity:1" fill="#169e53" d="M 314.5,348.5 C 315.5,348.5 316.5,348.5 317.5,348.5C 317.5,349.5 317.5,350.5 317.5,351.5C 319.322,351.831 320.989,352.498 322.5,353.5C 327.014,355.558 328.514,358.891 327,363.5C 328.205,364.071 329.372,364.738 330.5,365.5C 331.052,367.333 331.885,369 333,370.5C 334.028,368.639 335.528,367.305 337.5,366.5C 338.982,368.891 340.649,371.224 342.5,373.5C 341.68,375.111 340.346,375.778 338.5,375.5C 338.334,379.846 338.501,384.179 339,388.5C 343.066,389.581 347.233,390.248 351.5,390.5C 351.5,391.5 351.5,392.5 351.5,393.5C 355.783,394.011 359.783,393.344 363.5,391.5C 368.724,392.938 374.057,393.938 379.5,394.5C 379.291,395.086 378.957,395.586 378.5,396C 376.5,396.333 374.5,396.667 372.5,397C 374.425,398.595 376.425,398.762 378.5,397.5C 381.215,399.408 384.215,400.741 387.5,401.5C 386.833,402.833 385.833,403.833 384.5,404.5C 383.262,402.266 381.596,401.932 379.5,403.5C 377.049,401.989 374.549,401.656 372,402.5C 368.206,401.77 364.373,401.27 360.5,401C 354.366,399.079 348.033,397.745 341.5,397C 340.149,395.383 338.482,394.216 336.5,393.5C 337.645,392.109 337.645,390.776 336.5,389.5C 334.629,388.233 332.796,388.233 331,389.5C 325.815,385.019 320.648,380.686 315.5,376.5C 314.216,372.986 312.55,369.653 310.5,366.5C 308.925,363.418 306.758,360.751 304,358.5C 303.333,356.5 302.667,354.5 302,352.5C 296.687,345.853 290.687,339.853 284,334.5C 283.517,333.552 283.351,332.552 283.5,331.5C 287.835,331.917 292.168,332.417 296.5,333C 298.167,337.333 301.167,340.333 305.5,342C 307.901,345.269 310.901,347.436 314.5,348.5 Z"/></g>
<g><path style="opacity:1" fill="#b9d2e4" d="M 563.5,333.5 C 564.496,333.414 565.329,333.748 566,334.5C 566.497,336.81 566.663,339.143 566.5,341.5C 561.351,342.146 559.018,339.813 559.5,334.5C 561.099,334.768 562.432,334.434 563.5,333.5 Z"/></g>
<g><path style="opacity:1" fill="#5cbd8e" d="M 638.5,321.5 C 639.959,321.433 641.292,321.766 642.5,322.5C 638.08,327.261 633.247,331.594 628,335.5C 625.065,340.344 624.899,345.011 627.5,349.5C 627.167,350.5 626.5,351.167 625.5,351.5C 621.824,342.349 624.157,334.849 632.5,329C 635.732,327.77 638.399,325.77 640.5,323C 639.584,322.722 638.918,322.222 638.5,321.5 Z"/></g>
<g><path style="opacity:1" fill="#0e9c50" d="M 393.5,337.5 C 394.167,337.5 394.833,337.5 395.5,337.5C 396.263,338.268 397.263,338.768 398.5,339C 395.164,340.814 394.997,342.647 398,344.5C 398.3,348.996 400.467,351.996 404.5,353.5C 404.443,354.609 404.11,355.609 403.5,356.5C 401.396,356.201 399.396,356.534 397.5,357.5C 397.025,360.753 396.025,363.753 394.5,366.5C 393.833,366.5 393.5,366.833 393.5,367.5C 392.883,367.611 392.383,367.944 392,368.5C 391.765,372.32 390.932,375.987 389.5,379.5C 388.833,379.167 388.167,378.833 387.5,378.5C 385.999,379.752 384.332,380.752 382.5,381.5C 381.738,380.372 381.071,379.205 380.5,378C 376.438,376.07 372.438,376.237 368.5,378.5C 367.614,377.675 367.281,376.675 367.5,375.5C 364.833,375.5 362.167,375.5 359.5,375.5C 358.841,372.545 358.508,369.545 358.5,366.5C 357.448,366.649 356.448,366.483 355.5,366C 353.875,362.891 352.875,359.558 352.5,356C 352.559,353.095 353.726,350.928 356,349.5C 357.924,352.436 360.59,354.103 364,354.5C 366.857,353.969 369.523,352.969 372,351.5C 375.198,352.666 378.364,352.5 381.5,351C 382.264,348.016 383.764,345.516 386,343.5C 385.687,338.115 388.187,336.115 393.5,337.5 Z"/></g>
<g><path style="opacity:1" fill="#2ca866" d="M 348.5,338.5 C 350.465,338.948 350.798,339.948 349.5,341.5C 348.614,340.675 348.281,339.675 348.5,338.5 Z"/></g>
<g><path style="opacity:1" fill="#e2a86b" d="M 185.5,346.5 C 185.5,345.5 185.5,344.5 185.5,343.5C 181.802,343.552 178.135,343.886 174.5,344.5C 178.183,342.75 182.183,342.083 186.5,342.5C 186.768,344.099 186.434,345.432 185.5,346.5 Z"/></g>
<g><path style="opacity:1" fill="#43b07a" d="M 286.5,344.5 C 288.384,344.712 289.717,345.712 290.5,347.5C 289.443,347.906 288.109,347.906 286.5,347.5C 286.5,346.5 286.5,345.5 286.5,344.5 Z"/></g>
<g><path style="opacity:1" fill="#3bab69" d="M 450.5,346.5 C 453.957,346.667 454.29,347.667 451.5,349.5C 450.614,348.675 450.281,347.675 450.5,346.5 Z"/></g>
<g><path style="opacity:1" fill="#069c4e" d="M 677.5,348.5 C 677.842,349.338 678.508,349.672 679.5,349.5C 679.491,365.518 673.158,378.185 660.5,387.5C 657.017,388.01 653.684,388.677 650.5,389.5C 649.833,389.5 649.167,389.5 648.5,389.5C 648.167,389.5 647.833,389.5 647.5,389.5C 634.026,380.572 626.693,367.905 625.5,351.5C 626.5,351.167 627.167,350.5 627.5,349.5C 629.322,346.962 631.322,346.962 633.5,349.5C 636.041,346.9 638.541,346.9 641,349.5C 641.956,348.106 643.289,347.439 645,347.5C 647.333,348.833 649.667,348.833 652,347.5C 653.711,347.439 655.044,348.106 656,349.5C 658.158,346.05 660.658,345.717 663.5,348.5C 666.041,345.9 668.541,345.9 671,348.5C 673.293,345.866 675.46,345.866 677.5,348.5 Z"/></g>
<g><path style="opacity:1" fill="#34a966" d="M 447.5,348.5 C 449.048,348.821 449.715,349.821 449.5,351.5C 450.833,351.5 452.167,351.5 453.5,351.5C 453.703,353.39 453.037,354.89 451.5,356C 451.957,356.414 452.291,356.914 452.5,357.5C 451.726,358.711 450.893,358.711 450,357.5C 449.666,359.847 449.833,362.181 450.5,364.5C 448.5,364.167 446.5,363.833 444.5,363.5C 445.909,358.584 446.909,353.584 447.5,348.5 Z"/></g>
<g><path style="opacity:1" fill="#3a3b91" d="M 224.5,352.5 C 230.832,352.944 237.165,353.444 243.5,354C 248.741,356.877 249.907,361.044 247,366.5C 246.25,367.126 245.416,367.626 244.5,368C 237.491,368.423 230.491,368.256 223.5,367.5C 223.5,366.167 223.5,364.833 223.5,363.5C 230.13,364.546 236.797,364.713 243.5,364C 244.935,361.733 244.602,359.733 242.5,358C 236.555,356.838 230.555,356.338 224.5,356.5C 224.5,355.167 224.5,353.833 224.5,352.5 Z"/></g>
<g><path style="opacity:1" fill="#393b90" d="M 550.5,352.5 C 558.521,353.704 566.521,355.038 574.5,356.5C 574.5,358.167 574.5,359.833 574.5,361.5C 566.971,363.928 559.638,366.928 552.5,370.5C 550.828,366.982 551.995,364.982 556,364.5C 556.497,361.854 556.664,359.187 556.5,356.5C 554.5,356.5 552.5,356.5 550.5,356.5C 550.5,355.167 550.5,353.833 550.5,352.5 Z"/></g>
<g><path style="opacity:1" fill="#29a45f" d="M 294.5,351.5 C 297.119,352.403 297.786,354.069 296.5,356.5C 294.323,355.185 293.656,353.519 294.5,351.5 Z"/></g>
<g><path style="opacity:1" fill="#4db57d" d="M 327.5,353.5 C 329.288,353.215 330.955,353.548 332.5,354.5C 331.667,354.833 330.833,355.167 330,355.5C 328.624,355.316 327.791,354.649 327.5,353.5 Z"/></g>
<g><path style="opacity:1" fill="#2f328a" d="M 403.5,356.5 C 404.485,360.634 404.818,364.968 404.5,369.5C 404.045,371.367 403.378,373.2 402.5,375C 402.388,376.662 403.054,377.829 404.5,378.5C 405.484,381.428 405.817,384.428 405.5,387.5C 404.78,391.73 404.113,396.063 403.5,400.5C 400.833,400.5 398.167,400.5 395.5,400.5C 394.505,389.346 394.172,378.012 394.5,366.5C 396.025,363.753 397.025,360.753 397.5,357.5C 399.396,356.534 401.396,356.201 403.5,356.5 Z"/></g>
<g><path style="opacity:1" fill="#b8d1e3" d="M 560.5,358.5 C 569.236,358.395 569.569,359.729 561.5,362.5C 560.571,361.311 560.238,359.978 560.5,358.5 Z"/></g>
<g><path style="opacity:1" fill="#2ca45d" d="M 460.5,359.5 C 462.288,359.215 463.955,359.548 465.5,360.5C 464.667,360.833 463.833,361.167 463,361.5C 461.624,361.316 460.791,360.649 460.5,359.5 Z"/></g>
<g><path style="opacity:1" fill="#60be8c" d="M 330.5,359.5 C 331.675,359.281 332.675,359.614 333.5,360.5C 330.414,364.657 329.414,364.324 330.5,359.5 Z"/></g>
<g><path style="opacity:1" fill="#23a159" d="M 405.5,388.5 C 405.5,388.167 405.5,387.833 405.5,387.5C 405.817,384.428 405.484,381.428 404.5,378.5C 403.054,377.829 402.388,376.662 402.5,375C 403.378,373.2 404.045,371.367 404.5,369.5C 405.451,368.081 405.784,366.415 405.5,364.5C 406.972,361.731 408.139,358.731 409,355.5C 410.82,354.511 412.653,353.511 414.5,352.5C 419.702,354.352 425.036,354.852 430.5,354C 431.772,351.739 433.438,351.239 435.5,352.5C 433.973,354.193 432.64,356.027 431.5,358C 424.274,357.468 417.108,357.635 410,358.5C 408.776,362.21 409.942,364.877 413.5,366.5C 417.269,363.707 421.602,362.374 426.5,362.5C 426.5,364.167 426.5,365.833 426.5,367.5C 425.07,367.579 423.736,367.246 422.5,366.5C 421.476,367.853 420.143,368.52 418.5,368.5C 419.374,371.897 420.541,375.23 422,378.5C 423.011,379.337 424.178,379.67 425.5,379.5C 425.014,381.807 425.014,383.973 425.5,386C 421.236,389.415 419.903,388.415 421.5,383C 419.965,383.661 418.298,383.994 416.5,384C 415.167,383 415.167,382 416.5,381C 415.101,379.938 414.101,378.605 413.5,377C 415.153,374.589 414.487,373.422 411.5,373.5C 411.5,378.5 411.5,383.5 411.5,388.5C 409.5,388.5 407.5,388.5 405.5,388.5 Z"/></g>
<g><path style="opacity:1" fill="#279b61" d="M 488.5,362.5 C 489.23,363.712 490.23,364.712 491.5,365.5C 491.043,366.298 490.376,366.631 489.5,366.5C 488.77,365.288 487.77,364.288 486.5,363.5C 486.957,362.702 487.624,362.369 488.5,362.5 Z"/></g>
<g><path style="opacity:1" fill="#2ea665" d="M 300.5,364.5 C 304.071,364.408 305.238,366.074 304,369.5C 302.198,368.211 301.031,366.544 300.5,364.5 Z"/></g>
<g><path style="opacity:1" fill="#535aa1" d="M 394.5,366.5 C 394.172,378.012 394.505,389.346 395.5,400.5C 395.158,401.338 394.492,401.672 393.5,401.5C 393.5,390.167 393.5,378.833 393.5,367.5C 393.5,366.833 393.833,366.5 394.5,366.5 Z"/></g>
<g><path style="opacity:1" fill="#159d52" d="M 479.5,363.5 C 480.958,366.214 481.958,369.214 482.5,372.5C 483.5,373.833 484.5,375.167 485.5,376.5C 487.938,375.069 489.604,373.069 490.5,370.5C 493.32,370.913 495.32,369.913 496.5,367.5C 500.571,366.91 504.238,368.077 507.5,371C 509.81,371.497 512.143,371.663 514.5,371.5C 514.867,382.867 514.867,394.201 514.5,405.5C 510.196,401.306 505.196,400.306 499.5,402.5C 498.624,402.631 497.957,402.298 497.5,401.5C 498.127,400.583 498.461,399.583 498.5,398.5C 503.404,395.054 503.404,391.221 498.5,387C 497.255,386.209 495.922,385.709 494.5,385.5C 491.855,383.69 488.855,382.69 485.5,382.5C 482.741,381.358 480.074,380.024 477.5,378.5C 473.784,381.468 472.117,380.468 472.5,375.5C 471.5,375.5 470.5,375.5 469.5,375.5C 469.5,374.5 469.5,373.5 469.5,372.5C 471.199,372.66 472.866,372.494 474.5,372C 471.175,372.225 468.842,370.892 467.5,368C 463.911,368.29 462.411,366.79 463,363.5C 463.414,363.957 463.914,364.291 464.5,364.5C 467.087,363.585 469.587,362.585 472,361.5C 474.472,362.322 476.972,362.989 479.5,363.5 Z"/></g>
<g><path style="opacity:1" fill="#32348c" d="M 310.5,366.5 C 312.55,369.653 314.216,372.986 315.5,376.5C 312.047,391.479 308.047,406.312 303.5,421C 303.833,421.5 304.167,422 304.5,422.5C 333.971,410.425 363.305,410.758 392.5,423.5C 393.496,417.537 393.829,411.537 393.5,405.5C 396.807,404.949 400.14,404.616 403.5,404.5C 404.338,404.842 404.672,405.508 404.5,406.5C 403.285,407.779 403.618,408.779 405.5,409.5C 405.173,414.214 405.507,418.88 406.5,423.5C 435.677,410.583 465.011,410.25 494.5,422.5C 494.833,422.167 495.167,421.833 495.5,421.5C 492.009,408.534 488.675,395.534 485.5,382.5C 488.855,382.69 491.855,383.69 494.5,385.5C 495.591,389.996 496.924,394.329 498.5,398.5C 498.461,399.583 498.127,400.583 497.5,401.5C 497.957,402.298 498.624,402.631 499.5,402.5C 502.373,415.992 505.873,429.325 510,442.5C 510.798,444.259 510.631,445.926 509.5,447.5C 473.282,427.55 436.616,426.55 399.5,444.5C 362.224,426.277 325.557,427.277 289.5,447.5C 288.524,444.503 288.69,441.503 290,438.5C 296.133,417.637 301.799,396.637 307,375.5C 307.383,374.944 307.883,374.611 308.5,374.5C 309.233,376.495 309.9,376.661 310.5,375C 310.361,373.699 309.695,372.866 308.5,372.5C 308.595,370.214 309.262,368.214 310.5,366.5 Z"/></g>
<g><path style="opacity:1" fill="#8dcda5" d="M 446.5,366.5 C 448.346,366.222 449.68,366.889 450.5,368.5C 449.311,369.429 447.978,369.762 446.5,369.5C 446.5,368.5 446.5,367.5 446.5,366.5 Z"/></g>
<g><path style="opacity:1" fill="#3bac6b" d="M 459.5,367.5 C 461.048,367.821 461.715,368.821 461.5,370.5C 458.752,370.598 458.086,369.598 459.5,367.5 Z"/></g>
<g><path style="opacity:1" fill="#6ec191" d="M 430.5,368.5 C 433.572,368.183 436.572,368.516 439.5,369.5C 438,369.833 436.5,370.167 435,370.5C 433.014,370.431 431.514,369.765 430.5,368.5 Z"/></g>
<g><path style="opacity:1" fill="#7cc5ad" d="M 489.5,367.5 C 491.833,367.5 494.167,367.5 496.5,367.5C 495.32,369.913 493.32,370.913 490.5,370.5C 489.942,369.21 488.942,368.377 487.5,368C 488.094,367.536 488.761,367.369 489.5,367.5 Z"/></g>
<g><path style="opacity:1" fill="#1a895e" d="M 308.5,372.5 C 309.695,372.866 310.361,373.699 310.5,375C 309.9,376.661 309.233,376.495 308.5,374.5C 307.494,373.604 307.494,372.938 308.5,372.5 Z"/></g>
<g><path style="opacity:1" fill="#33a864" d="M 346.5,372.5 C 348.346,372.222 349.68,372.889 350.5,374.5C 349.68,376.111 348.346,376.778 346.5,376.5C 346.5,375.167 346.5,373.833 346.5,372.5 Z"/></g>
<g><path style="opacity:1" fill="#3eac6c" d="M 449.5,373.5 C 453.215,373.32 456.882,373.654 460.5,374.5C 463.154,375.469 463.82,377.136 462.5,379.5C 460.689,378.261 458.689,377.594 456.5,377.5C 454.168,378.172 451.834,378.339 449.5,378C 448.272,376.51 448.272,375.01 449.5,373.5 Z"/></g>
<g><path style="opacity:1" fill="#36a865" d="M 439.5,374.5 C 441.199,374.34 442.866,374.506 444.5,375C 445.995,378.841 444.661,380.174 440.5,379C 438.452,377.774 438.119,376.274 439.5,374.5 Z"/></g>
<g><path style="opacity:1" fill="#2ba662" d="M 481.5,386.5 C 482.693,386.97 483.36,387.97 483.5,389.5C 483.743,391.922 482.743,393.588 480.5,394.5C 479.522,391.732 479.855,389.066 481.5,386.5 Z"/></g>
<g><path style="opacity:1" fill="#56649f" d="M 405.5,387.5 C 405.5,387.833 405.5,388.167 405.5,388.5C 405.5,394.5 405.5,400.5 405.5,406.5C 405.167,406.5 404.833,406.5 404.5,406.5C 404.672,405.508 404.338,404.842 403.5,404.5C 404.686,403.039 404.686,401.705 403.5,400.5C 404.113,396.063 404.78,391.73 405.5,387.5 Z"/></g>
<g><path style="opacity:1" fill="#bcdbe5" d="M 494.5,385.5 C 495.922,385.709 497.255,386.209 498.5,387C 503.404,391.221 503.404,395.054 498.5,398.5C 496.924,394.329 495.591,389.996 494.5,385.5 Z"/></g>
<g><path style="opacity:1" fill="#fbfcfc" d="M 648.5,389.5 C 649.167,389.5 649.833,389.5 650.5,389.5C 655.08,389.113 659.414,389.947 663.5,392C 667.67,397.202 672.17,402.035 677,406.5C 679.424,411.57 680.091,416.903 679,422.5C 678.764,424.119 677.931,425.119 676.5,425.5C 676.586,424.504 676.252,423.671 675.5,423C 673.559,422.257 671.726,422.424 670,423.5C 668.08,420.562 665.58,419.895 662.5,421.5C 660.857,418.505 658.523,417.839 655.5,419.5C 653.352,416.63 650.685,415.963 647.5,417.5C 646.126,416.289 644.626,415.289 643,414.5C 641.739,414.759 640.739,415.426 640,416.5C 637.872,413.542 635.206,412.876 632,414.5C 630.245,411.378 627.745,410.712 624.5,412.5C 624.727,401.436 630.394,395.27 641.5,394C 643.76,392.212 646.093,390.712 648.5,389.5 Z"/></g>
<g><path style="opacity:1" fill="#57ba89" d="M 660.5,387.5 C 662.586,389.822 665.086,391.822 668,393.5C 670.233,398.401 673.566,402.401 678,405.5C 682.444,412.524 682.611,419.524 678.5,426.5C 677.508,426.672 676.842,426.338 676.5,425.5C 677.931,425.119 678.764,424.119 679,422.5C 680.091,416.903 679.424,411.57 677,406.5C 672.17,402.035 667.67,397.202 663.5,392C 659.414,389.947 655.08,389.113 650.5,389.5C 653.684,388.677 657.017,388.01 660.5,387.5 Z"/></g>
<g><path style="opacity:1" fill="#4fb785" d="M 647.5,389.5 C 647.833,389.5 648.167,389.5 648.5,389.5C 646.093,390.712 643.76,392.212 641.5,394C 630.394,395.27 624.727,401.436 624.5,412.5C 623.668,412.246 623.001,411.246 622.5,409.5C 623.401,404.531 625.735,400.364 629.5,397C 635.401,394.195 641.401,391.695 647.5,389.5 Z"/></g>
<g><path style="opacity:1" fill="#47b174" d="M 466.5,395.5 C 467.376,395.369 468.043,395.702 468.5,396.5C 467.876,398.754 466.543,400.421 464.5,401.5C 464.167,401.167 463.833,400.833 463.5,400.5C 464.26,398.64 465.26,396.973 466.5,395.5 Z"/></g>
<g><path style="opacity:1" fill="#54b77e" d="M 438.5,397.5 C 444.448,397.626 444.781,398.626 439.5,400.5C 437.197,400.124 436.863,399.124 438.5,397.5 Z"/></g>
<g><path style="opacity:1" fill="#199756" d="M 393.5,401.5 C 394.492,401.672 395.158,401.338 395.5,400.5C 398.167,400.5 400.833,400.5 403.5,400.5C 404.686,401.705 404.686,403.039 403.5,404.5C 400.14,404.616 396.807,404.949 393.5,405.5C 391.958,404.699 390.292,404.366 388.5,404.5C 388.525,400.716 390.192,399.716 393.5,401.5 Z"/></g>
<g><path style="opacity:1" fill="#3aab6a" d="M 409.5,400.5 C 413.228,400.844 416.895,401.51 420.5,402.5C 424.942,400.297 429.609,399.964 434.5,401.5C 427.836,401.894 421.169,402.894 414.5,404.5C 412.167,404.167 409.833,403.833 407.5,403.5C 408.193,402.482 408.859,401.482 409.5,400.5 Z"/></g>
<g><path style="opacity:1" fill="#27a45c" d="M 431.5,404.5 C 432.833,404.5 434.167,404.5 435.5,404.5C 434.386,410.291 431.053,412.291 425.5,410.5C 426.577,407.423 428.577,405.423 431.5,404.5 Z"/></g>
<g><path style="opacity:1" fill="#24a25e" d="M 404.5,406.5 C 404.833,406.5 405.167,406.5 405.5,406.5C 409.224,405.773 411.891,407.106 413.5,410.5C 412.667,410.833 411.833,411.167 411,411.5C 409.2,410.622 407.367,409.955 405.5,409.5C 403.618,408.779 403.285,407.779 404.5,406.5 Z"/></g>
<g><path style="opacity:1" fill="#079c4e" d="M 622.5,409.5 C 623.001,411.246 623.668,412.246 624.5,412.5C 627.745,410.712 630.245,411.378 632,414.5C 635.206,412.876 637.872,413.542 640,416.5C 640.739,415.426 641.739,414.759 643,414.5C 644.626,415.289 646.126,416.289 647.5,417.5C 650.685,415.963 653.352,416.63 655.5,419.5C 658.523,417.839 660.857,418.505 662.5,421.5C 665.58,419.895 668.08,420.562 670,423.5C 671.726,422.424 673.559,422.257 675.5,423C 676.252,423.671 676.586,424.504 676.5,425.5C 676.842,426.338 677.508,426.672 678.5,426.5C 673.334,443.327 662.667,454.994 646.5,461.5C 646.167,461.5 645.833,461.5 645.5,461.5C 643.167,460.833 640.833,460.167 638.5,459.5C 637.074,458.659 635.74,457.659 634.5,456.5C 629.234,451.649 625.734,445.649 624,438.5C 622.683,428.833 622.183,419.166 622.5,409.5 Z"/></g>
<g><path style="opacity:1" fill="#ef9327" d="M 265.5,172.5 C 273.469,173.319 279.803,176.985 284.5,183.5C 270.304,192.553 257.137,191.219 245,179.5C 232.28,192.384 220.113,205.717 208.5,219.5C 214.77,219.114 221.103,219.614 227.5,221C 230.329,222.247 232.995,223.747 235.5,225.5C 236.521,226.002 236.688,226.668 236,227.5C 224.432,239.364 210.932,242.531 195.5,237C 183.929,251.997 174.929,268.164 168.5,285.5C 178.902,278.645 190.235,276.645 202.5,279.5C 198.14,293.356 188.807,301.856 174.5,305C 169.511,305.499 164.511,305.666 159.5,305.5C 153.629,323.357 150.796,341.69 151,360.5C 156.818,352.178 164.651,346.845 174.5,344.5C 178.135,343.886 181.802,343.552 185.5,343.5C 185.5,344.5 185.5,345.5 185.5,346.5C 182.408,366.926 170.741,379.259 150.5,383.5C 151.552,401.03 154.052,418.363 158,435.5C 162.667,425.502 169.5,417.335 178.5,411C 181.561,408.965 184.895,407.799 188.5,407.5C 193.151,431.176 185.485,449.509 165.5,462.5C 171.73,479.625 179.563,495.959 189,511.5C 189.567,494.533 196.4,480.699 209.5,470C 211.113,469.911 212.28,470.745 213,472.5C 221.61,489.793 221.61,507.126 213,524.5C 210.5,527.667 208,530.833 205.5,534C 216.333,546.665 228.333,558.165 241.5,568.5C 241.833,567.667 242.167,566.833 242.5,566C 237.655,549.57 240.489,534.737 251,521.5C 272.348,538.553 278.515,560.053 269.5,586C 291.563,599.19 315.23,608.357 340.5,613.5C 341.167,614.5 341.833,615.5 342.5,616.5C 316.698,610.621 292.198,601.288 269,588.5C 267.167,591.5 265.333,594.5 263.5,597.5C 265.565,598.857 267.565,600.19 269.5,601.5C 268.833,601.5 268.167,601.5 267.5,601.5C 265.255,600.365 262.922,599.865 260.5,600C 246.034,613.204 229.034,618.204 209.5,615C 202.759,613.379 196.593,610.546 191,606.5C 198.286,594.934 208.786,587.434 222.5,584C 226.819,583.24 231.152,582.573 235.5,582C 220.204,570.371 206.537,557.038 194.5,542C 182.806,545.786 170.806,546.452 158.5,544C 148.442,540.729 140.276,534.896 134,526.5C 133.251,525.365 133.417,524.365 134.5,523.5C 139.95,519.737 145.95,517.237 152.5,516C 160.91,515.451 169.243,515.784 177.5,517C 168.097,501.358 160.43,484.858 154.5,467.5C 130.726,467.693 114.059,457.027 104.5,435.5C 119.386,430.534 133.386,432.534 146.5,441.5C 146.833,441.167 147.167,440.833 147.5,440.5C 142.811,421.807 139.977,402.807 139,383.5C 123.534,379.369 113.201,369.703 108,354.5C 106.805,350.249 106.305,345.915 106.5,341.5C 119.656,342.165 130.489,347.499 139,357.5C 140.468,338.66 144.301,320.326 150.5,302.5C 135.924,291.338 130.258,276.671 133.5,258.5C 145.485,261.643 153.985,268.976 159,280.5C 167.154,264.187 176.821,248.854 188,234.5C 188.667,233.167 188.667,231.833 188,230.5C 176.284,216.639 175.617,202.306 186,187.5C 193.037,193.245 197.204,200.578 198.5,209.5C 198.335,213.182 198.501,216.848 199,220.5C 199.717,219.956 200.217,219.289 200.5,218.5C 213.624,203.542 227.624,189.375 242.5,176C 236.485,161.445 239.152,148.779 250.5,138C 251.332,137.312 251.998,137.479 252.5,138.5C 258.977,149.446 258.977,160.446 252.5,171.5C 256.748,171.25 261.081,171.583 265.5,172.5 Z"/></g>
<g><path style="opacity:1" fill="#feed00" d="M 183.5,410.5 C 184.822,410.33 185.989,410.663 187,411.5C 190.28,434.44 181.78,451.274 161.5,462C 136.563,467.694 118.563,459.194 107.5,436.5C 129.066,432.031 145.899,439.031 158,457.5C 156.905,436.474 165.405,420.807 183.5,410.5 Z"/></g>
<g><path style="opacity:1" fill="#feeb01" d="M 141.5,384.5 C 143.833,384.5 146.167,384.5 148.5,384.5C 150.104,403.06 153.104,421.393 157.5,439.5C 156.979,443.191 156.312,446.857 155.5,450.5C 153.144,447.978 150.977,445.312 149,442.5C 144.564,423.41 142.064,404.077 141.5,384.5 Z"/></g>
<g><path style="opacity:1" fill="#feec00" d="M 108.5,344.5 C 128.123,346.61 140.623,357.277 146,376.5C 151.181,357.14 163.681,346.807 183.5,345.5C 181.821,362.684 172.821,374.184 156.5,380C 135.126,384.23 119.96,376.396 111,356.5C 109.641,352.595 108.808,348.595 108.5,344.5 Z"/></g>
<g><path style="opacity:1" fill="#feeb01" d="M 151.5,302.5 C 153.315,303.63 155.315,304.296 157.5,304.5C 151.493,324.714 148.326,345.38 148,366.5C 147.085,367.328 146.419,368.328 146,369.5C 144.414,367.33 143.08,364.996 142,362.5C 141.333,356.833 141.333,351.167 142,345.5C 144.341,330.962 147.507,316.628 151.5,302.5 Z"/></g>
<g><path style="opacity:1" fill="#feec00" d="M 134.5,260.5 C 147.208,264.046 155.041,272.38 158,285.5C 158.333,290.167 158.667,294.833 159,299.5C 168.574,283.458 182.408,277.458 200.5,281.5C 191.204,299.648 176.537,306.815 156.5,303C 139.815,293.799 132.481,279.632 134.5,260.5 Z"/></g>
<g><path style="opacity:1" fill="#fee901" d="M 189.5,234.5 C 191.346,234.222 192.68,234.889 193.5,236.5C 187.168,245.159 181.335,254.159 176,263.5C 171.24,273.355 166.24,283.022 161,292.5C 160.003,289.199 159.67,285.866 160,282.5C 168.472,265.557 178.306,249.557 189.5,234.5 Z"/></g>
<g><path style="opacity:1" fill="#feec00" d="M 185.5,190.5 C 187.371,190.859 188.871,191.859 190,193.5C 198.437,205.075 199.77,217.409 194,230.5C 202.636,222.464 212.803,219.631 224.5,222C 228.112,223.139 231.446,224.806 234.5,227C 225.118,236.677 213.784,240.011 200.5,237C 184.989,229.82 178.489,217.653 181,200.5C 182.224,196.977 183.724,193.644 185.5,190.5 Z"/></g>
<g><path style="opacity:1" fill="#dbb68a" d="M 198.5,209.5 C 199.167,212.5 199.833,215.5 200.5,218.5C 200.217,219.289 199.717,219.956 199,220.5C 198.501,216.848 198.335,213.182 198.5,209.5 Z"/></g>
<g><path style="opacity:1" fill="#fde402" d="M 241.5,178.5 C 242.239,178.369 242.906,178.536 243.5,179C 230.26,192.236 217.76,206.069 206,220.5C 204.247,221.627 202.413,222.627 200.5,223.5C 199.479,222.998 199.312,222.332 200,221.5C 213.673,206.994 227.506,192.661 241.5,178.5 Z"/></g>
<g><path style="opacity:1" fill="#feeb00" d="M 265.5,172.5 C 272.03,174.44 277.697,177.94 282.5,183C 280.112,184.861 277.446,186.194 274.5,187C 251.664,189.515 240.497,179.349 241,156.5C 242.408,150.514 245.242,145.348 249.5,141C 252.064,140.55 253.564,141.716 254,144.5C 257.667,156.008 255.5,166.174 247.5,175C 253.228,173.056 259.228,172.223 265.5,172.5 Z"/></g>
<g><path style="opacity:1" fill="#fbfdfc" d="M 638.5,459.5 C 640.833,460.167 643.167,460.833 645.5,461.5C 650.383,465.258 653.216,470.258 654,476.5C 661.327,485.54 661.327,494.54 654,503.5C 653.768,502.263 653.268,501.263 652.5,500.5C 651.068,498.353 649.235,498.02 647,499.5C 646.277,495.082 643.943,493.749 640,495.5C 639.277,491.082 636.943,489.749 633,491.5C 632.277,487.082 629.943,485.749 626,487.5C 625.16,483.498 622.66,481.498 618.5,481.5C 615.37,479.601 612.37,477.435 609.5,475C 608.207,474.51 606.873,474.343 605.5,474.5C 604.379,472.911 604.546,471.244 606,469.5C 608.592,466.238 611.759,463.738 615.5,462C 623.231,462.155 630.897,461.322 638.5,459.5 Z"/></g>
<g><path style="opacity:1" fill="#50b885" d="M 634.5,456.5 C 635.74,457.659 637.074,458.659 638.5,459.5C 630.897,461.322 623.231,462.155 615.5,462C 611.759,463.738 608.592,466.238 606,469.5C 604.546,471.244 604.379,472.911 605.5,474.5C 604.652,475.625 603.652,475.625 602.5,474.5C 606.909,462.454 615.576,457.287 628.5,459C 630.723,458.434 632.723,457.6 634.5,456.5 Z"/></g>
<g><path style="opacity:1" fill="#feeb00" d="M 162.5,463.5 C 163.496,463.414 164.329,463.748 165,464.5C 170.949,482.73 179.282,499.73 190,515.5C 191.057,518.549 191.224,521.549 190.5,524.5C 187.327,522.413 183.994,520.579 180.5,519C 169.635,502.437 161.635,484.604 156.5,465.5C 158.786,465.405 160.786,464.738 162.5,463.5 Z"/></g>
<g><path style="opacity:1" fill="#717db5" d="M 251.5,466.5 C 247.5,466.5 243.5,466.5 239.5,466.5C 239.5,474.833 239.5,483.167 239.5,491.5C 240.833,491.5 242.167,491.5 243.5,491.5C 242.081,492.451 240.415,492.784 238.5,492.5C 238.5,483.5 238.5,474.5 238.5,465.5C 243.032,465.182 247.366,465.515 251.5,466.5 Z"/></g>
<g><path style="opacity:1" fill="#34368e" d="M 251.5,466.5 C 253.371,466.859 254.871,467.859 256,469.5C 257.902,479.435 253.735,483.768 243.5,482.5C 243.5,485.5 243.5,488.5 243.5,491.5C 242.167,491.5 240.833,491.5 239.5,491.5C 239.5,483.167 239.5,474.833 239.5,466.5C 243.5,466.5 247.5,466.5 251.5,466.5 Z"/></g>
<g><path style="opacity:1" fill="#3d3f93" d="M 265.5,465.5 C 267.288,465.215 268.955,465.548 270.5,466.5C 273.906,475.052 276.906,483.719 279.5,492.5C 277.833,492.5 276.167,492.5 274.5,492.5C 274.167,490.5 273.833,488.5 273.5,486.5C 269.774,486.177 266.107,486.511 262.5,487.5C 261.754,488.736 261.421,490.07 261.5,491.5C 259.833,491.5 258.167,491.5 256.5,491.5C 259.103,482.69 262.103,474.024 265.5,465.5 Z"/></g>
<g><path style="opacity:1" fill="#95a6cc" d="M 295.5,466.5 C 291.167,466.5 286.833,466.5 282.5,466.5C 282.5,474.833 282.5,483.167 282.5,491.5C 286.5,491.5 290.5,491.5 294.5,491.5C 290.366,492.485 286.032,492.818 281.5,492.5C 281.5,483.5 281.5,474.5 281.5,465.5C 286.363,465.181 291.03,465.514 295.5,466.5 Z"/></g>
<g><path style="opacity:1" fill="#393b90" d="M 295.5,466.5 C 302.05,470.302 304.216,475.968 302,483.5C 301.057,487.782 298.557,490.448 294.5,491.5C 290.5,491.5 286.5,491.5 282.5,491.5C 282.5,483.167 282.5,474.833 282.5,466.5C 286.833,466.5 291.167,466.5 295.5,466.5 Z"/></g>
<g><path style="opacity:1" fill="#3d3e93" d="M 312.5,466.5 C 314.792,466.244 316.959,466.577 319,467.5C 322.141,475.757 324.974,484.09 327.5,492.5C 323.294,493.051 320.96,491.217 320.5,487C 317.167,486.333 313.833,486.333 310.5,487C 310.335,492.009 308.002,493.509 303.5,491.5C 306.704,483.219 309.704,474.886 312.5,466.5 Z"/></g>
<g><path style="opacity:1" fill="#33358d" d="M 330.5,466.5 C 332.288,466.215 333.955,466.548 335.5,467.5C 338.333,472.5 341.167,477.5 344,482.5C 344.499,477.177 344.666,471.844 344.5,466.5C 345.833,466.5 347.167,466.5 348.5,466.5C 348.5,474.833 348.5,483.167 348.5,491.5C 346.833,491.5 345.167,491.5 343.5,491.5C 341.434,487.034 339.1,482.701 336.5,478.5C 336.013,477.527 335.513,476.527 335,475.5C 334.501,480.823 334.334,486.156 334.5,491.5C 333.167,491.5 331.833,491.5 330.5,491.5C 330.5,483.167 330.5,474.833 330.5,466.5 Z"/></g>
<g><path style="opacity:1" fill="#8190c0" d="M 344.5,466.5 C 345.919,465.549 347.585,465.216 349.5,465.5C 349.5,474.5 349.5,483.5 349.5,492.5C 347.265,492.795 345.265,492.461 343.5,491.5C 345.167,491.5 346.833,491.5 348.5,491.5C 348.5,483.167 348.5,474.833 348.5,466.5C 347.167,466.5 345.833,466.5 344.5,466.5 Z"/></g>
<g><path style="opacity:1" fill="#393b91" d="M 365.5,482.5 C 365.5,481.167 365.5,479.833 365.5,478.5C 368.5,478.5 371.5,478.5 374.5,478.5C 374.5,481.833 374.5,485.167 374.5,488.5C 370.566,492.089 365.899,493.255 360.5,492C 355.327,488.844 352.993,484.177 353.5,478C 355.126,466.019 361.459,462.685 372.5,468C 373.861,469.584 374.528,471.418 374.5,473.5C 371.042,473.096 367.875,472.096 365,470.5C 362.333,470.167 360.333,471.167 359,473.5C 358.333,476.833 358.333,480.167 359,483.5C 361.053,487.292 364.219,488.458 368.5,487C 370.107,485.951 370.773,484.451 370.5,482.5C 368.833,482.5 367.167,482.5 365.5,482.5 Z"/></g>
<g><path style="opacity:1" fill="#383990" d="M 383.5,465.5 C 388.39,464.784 392.556,466.117 396,469.5C 396.49,470.793 396.657,472.127 396.5,473.5C 393.512,472.562 390.678,471.229 388,469.5C 383.691,470.083 382.858,471.916 385.5,475C 389.984,475.571 393.818,477.404 397,480.5C 398.177,490.644 393.677,494.478 383.5,492C 380.404,489.971 378.738,487.138 378.5,483.5C 380.288,483.215 381.955,483.548 383.5,484.5C 385.625,488.741 388.458,489.408 392,486.5C 392.781,485.056 392.614,483.723 391.5,482.5C 388.461,481.431 385.461,480.265 382.5,479C 378.285,474.134 378.618,469.634 383.5,465.5 Z"/></g>
<g><path style="opacity:1" fill="#545ba2" d="M 401.5,465.5 C 403.167,465.5 404.833,465.5 406.5,465.5C 406.5,474.5 406.5,483.5 406.5,492.5C 404.833,492.5 403.167,492.5 401.5,492.5C 401.5,483.5 401.5,474.5 401.5,465.5 Z"/></g>
<g><path style="opacity:1" fill="#2e2f8a" d="M 402.5,466.5 C 403.5,466.5 404.5,466.5 405.5,466.5C 405.5,474.833 405.5,483.167 405.5,491.5C 404.5,491.5 403.5,491.5 402.5,491.5C 402.5,483.167 402.5,474.833 402.5,466.5 Z"/></g>
<g><path style="opacity:1" fill="#727fb7" d="M 423.5,466.5 C 419.5,466.5 415.5,466.5 411.5,466.5C 411.5,474.833 411.5,483.167 411.5,491.5C 415.167,491.5 418.833,491.5 422.5,491.5C 418.702,492.483 414.702,492.817 410.5,492.5C 410.5,483.5 410.5,474.5 410.5,465.5C 415.032,465.182 419.366,465.515 423.5,466.5 Z"/></g>
<g><path style="opacity:1" fill="#34368e" d="M 423.5,466.5 C 429.058,468.776 431.391,472.942 430.5,479C 431.219,483.464 429.886,487.131 426.5,490C 425.255,490.791 423.922,491.291 422.5,491.5C 418.833,491.5 415.167,491.5 411.5,491.5C 411.5,483.167 411.5,474.833 411.5,466.5C 415.5,466.5 419.5,466.5 423.5,466.5 Z"/></g>
<g><path style="opacity:1" fill="#545ba2" d="M 434.5,465.5 C 436.167,465.5 437.833,465.5 439.5,465.5C 439.5,474.5 439.5,483.5 439.5,492.5C 437.833,492.5 436.167,492.5 434.5,492.5C 434.5,483.5 434.5,474.5 434.5,465.5 Z"/></g>
<g><path style="opacity:1" fill="#2e2f8a" d="M 435.5,466.5 C 436.5,466.5 437.5,466.5 438.5,466.5C 438.5,474.833 438.5,483.167 438.5,491.5C 437.5,491.5 436.5,491.5 435.5,491.5C 435.5,483.167 435.5,474.833 435.5,466.5 Z"/></g>
<g><path style="opacity:1" fill="#707db5" d="M 451.5,466.5 C 449.167,466.5 446.833,466.5 444.5,466.5C 444.5,474.833 444.5,483.167 444.5,491.5C 445.833,491.5 447.167,491.5 448.5,491.5C 447.081,492.451 445.415,492.784 443.5,492.5C 443.5,483.5 443.5,474.5 443.5,465.5C 446.385,465.194 449.052,465.527 451.5,466.5 Z"/></g>
<g><path style="opacity:1" fill="#36388f" d="M 451.5,466.5 C 452.772,471.792 453.938,477.125 455,482.5C 456.583,477.244 458.083,471.911 459.5,466.5C 461.833,466.5 464.167,466.5 466.5,466.5C 466.5,474.833 466.5,483.167 466.5,491.5C 465.167,491.5 463.833,491.5 462.5,491.5C 462.666,485.158 462.5,478.825 462,472.5C 461.023,474.74 460.523,477.073 460.5,479.5C 459.502,483.492 458.502,487.492 457.5,491.5C 455.955,492.452 454.288,492.785 452.5,492.5C 452.087,486.358 450.921,480.358 449,474.5C 448.501,480.157 448.334,485.824 448.5,491.5C 447.167,491.5 445.833,491.5 444.5,491.5C 444.5,483.167 444.5,474.833 444.5,466.5C 446.833,466.5 449.167,466.5 451.5,466.5 Z"/></g>
<g><path style="opacity:1" fill="#95a8cd" d="M 459.5,466.5 C 461.948,465.527 464.615,465.194 467.5,465.5C 467.5,474.5 467.5,483.5 467.5,492.5C 465.5,492.5 463.5,492.5 461.5,492.5C 461.818,487.968 461.485,483.634 460.5,479.5C 460.523,477.073 461.023,474.74 462,472.5C 462.5,478.825 462.666,485.158 462.5,491.5C 463.833,491.5 465.167,491.5 466.5,491.5C 466.5,483.167 466.5,474.833 466.5,466.5C 464.167,466.5 461.833,466.5 459.5,466.5 Z"/></g>
<g><path style="opacity:1" fill="#393b91" d="M 471.5,466.5 C 476.179,466.334 480.845,466.501 485.5,467C 486.931,467.465 488.097,468.299 489,469.5C 490.826,479.509 486.659,483.842 476.5,482.5C 476.5,485.833 476.5,489.167 476.5,492.5C 474.833,492.5 473.167,492.5 471.5,492.5C 471.5,483.833 471.5,475.167 471.5,466.5 Z"/></g>
<g><path style="opacity:1" fill="#3b3c91" d="M 493.5,465.5 C 495.167,465.5 496.833,465.5 498.5,465.5C 498.334,472.175 498.5,478.842 499,485.5C 501.418,487.68 504.084,488.013 507,486.5C 507.5,479.508 507.666,472.508 507.5,465.5C 509.167,465.5 510.833,465.5 512.5,465.5C 512.666,472.508 512.5,479.508 512,486.5C 508.67,492.283 503.836,493.949 497.5,491.5C 496.667,490.5 495.833,489.5 495,488.5C 493.604,480.92 493.104,473.253 493.5,465.5 Z"/></g>
<g><path style="opacity:1" fill="#3f4094" d="M 524.5,465.5 C 526.288,465.215 527.955,465.548 529.5,466.5C 532.906,475.052 535.906,483.719 538.5,492.5C 536.833,492.5 535.167,492.5 533.5,492.5C 533.167,490.5 532.833,488.5 532.5,486.5C 528.774,486.177 525.107,486.511 521.5,487.5C 520.691,489.071 520.357,490.738 520.5,492.5C 518.833,492.5 517.167,492.5 515.5,492.5C 517.899,483.303 520.899,474.303 524.5,465.5 Z"/></g>
<g><path style="opacity:1" fill="#32338c" d="M 546.5,466.5 C 549.167,471.5 551.833,476.5 554.5,481.5C 554.369,482.376 554.702,483.043 555.5,483.5C 556.495,477.872 556.829,472.206 556.5,466.5C 557.5,466.5 558.5,466.5 559.5,466.5C 559.5,474.833 559.5,483.167 559.5,491.5C 558.167,491.5 556.833,491.5 555.5,491.5C 552.833,487.167 550.167,482.833 547.5,478.5C 547.539,477.244 547.039,476.244 546,475.5C 545.501,480.823 545.334,486.156 545.5,491.5C 544.167,491.5 542.833,491.5 541.5,491.5C 541.5,483.167 541.5,474.833 541.5,466.5C 543.167,466.5 544.833,466.5 546.5,466.5 Z"/></g>
<g><path style="opacity:1" fill="#6872af" d="M 555.5,491.5 C 556.833,491.5 558.167,491.5 559.5,491.5C 559.5,483.167 559.5,474.833 559.5,466.5C 558.5,466.5 557.5,466.5 556.5,466.5C 556.829,472.206 556.495,477.872 555.5,483.5C 554.702,483.043 554.369,482.376 554.5,481.5C 555.488,476.36 555.821,471.026 555.5,465.5C 557.167,465.5 558.833,465.5 560.5,465.5C 560.5,474.5 560.5,483.5 560.5,492.5C 558.585,492.784 556.919,492.451 555.5,491.5 Z"/></g>
<g><path style="opacity:1" fill="#9baed0" d="M 546.5,466.5 C 544.833,466.5 543.167,466.5 541.5,466.5C 541.5,474.833 541.5,483.167 541.5,491.5C 542.833,491.5 544.167,491.5 545.5,491.5C 545.334,486.156 545.501,480.823 546,475.5C 547.039,476.244 547.539,477.244 547.5,478.5C 546.514,482.97 546.181,487.637 546.5,492.5C 544.5,492.5 542.5,492.5 540.5,492.5C 540.5,483.5 540.5,474.5 540.5,465.5C 542.735,465.205 544.735,465.539 546.5,466.5 Z"/></g>
<g><path style="opacity:1" fill="#bcd5e5" d="M 243.5,470.5 C 245.857,470.337 248.19,470.503 250.5,471C 253.167,473 253.167,475 250.5,477C 248.19,477.497 245.857,477.663 243.5,477.5C 243.5,475.167 243.5,472.833 243.5,470.5 Z"/></g>
<g><path style="opacity:1" fill="#c2dce9" d="M 287.5,470.5 C 293.922,469.104 297.256,471.604 297.5,478C 298.173,485.496 294.839,488.662 287.5,487.5C 287.5,481.833 287.5,476.167 287.5,470.5 Z"/></g>
<g><path style="opacity:1" fill="#c3ddea" d="M 415.5,470.5 C 422.416,469.255 425.749,472.088 425.5,479C 426.347,486.649 423.014,489.483 415.5,487.5C 415.5,481.833 415.5,476.167 415.5,470.5 Z"/></g>
<g><path style="opacity:1" fill="#c1dbe9" d="M 476.5,470.5 C 478.857,470.337 481.19,470.503 483.5,471C 484.833,473 484.833,475 483.5,477C 481.19,477.497 478.857,477.663 476.5,477.5C 476.5,475.167 476.5,472.833 476.5,470.5 Z"/></g>
<g><path style="opacity:1" fill="#b2cae0" d="M 526.5,472.5 C 528.31,475.145 529.31,478.145 529.5,481.5C 527.833,481.5 526.167,481.5 524.5,481.5C 524.405,478.303 525.072,475.303 526.5,472.5 Z"/></g>
<g><path style="opacity:1" fill="#089c4e" d="M 602.5,474.5 C 603.652,475.625 604.652,475.625 605.5,474.5C 606.873,474.343 608.207,474.51 609.5,475C 612.37,477.435 615.37,479.601 618.5,481.5C 622.66,481.498 625.16,483.498 626,487.5C 629.943,485.749 632.277,487.082 633,491.5C 636.943,489.749 639.277,491.082 640,495.5C 643.943,493.749 646.277,495.082 647,499.5C 649.235,498.02 651.068,498.353 652.5,500.5C 652.5,502.5 652.5,504.5 652.5,506.5C 642.641,521.255 628.974,529.589 611.5,531.5C 608.466,528.984 605.132,526.984 601.5,525.5C 602.625,524.348 602.625,523.348 601.5,522.5C 594.693,508.029 594.859,493.696 602,479.5C 602.494,477.866 602.66,476.199 602.5,474.5 Z"/></g>
<g><path style="opacity:1" fill="#b3cae0" d="M 267.5,472.5 C 269.472,475.084 270.472,478.084 270.5,481.5C 268.833,481.5 267.167,481.5 265.5,481.5C 265.405,478.303 266.072,475.303 267.5,472.5 Z"/></g>
<g><path style="opacity:1" fill="#9fb3d3" d="M 330.5,466.5 C 330.5,474.833 330.5,483.167 330.5,491.5C 331.833,491.5 333.167,491.5 334.5,491.5C 334.334,486.156 334.501,480.823 335,475.5C 335.513,476.527 336.013,477.527 336.5,478.5C 335.514,482.97 335.181,487.637 335.5,492.5C 333.5,492.5 331.5,492.5 329.5,492.5C 329.174,483.651 329.507,474.984 330.5,466.5 Z"/></g>
<g><path style="opacity:1" fill="#b6cee2" d="M 314.5,472.5 C 316.956,474.818 318.289,477.818 318.5,481.5C 316.5,481.5 314.5,481.5 312.5,481.5C 313.167,478.5 313.833,475.5 314.5,472.5 Z"/></g>
<g><path style="opacity:1" fill="#6974b0" d="M 374.5,488.5 C 374.5,485.167 374.5,481.833 374.5,478.5C 371.5,478.5 368.5,478.5 365.5,478.5C 365.5,479.833 365.5,481.167 365.5,482.5C 364.549,481.081 364.216,479.415 364.5,477.5C 368.167,477.5 371.833,477.5 375.5,477.5C 375.815,481.371 375.482,485.038 374.5,488.5 Z"/></g>
<g><path style="opacity:1" fill="#4eb784" d="M 645.5,461.5 C 645.833,461.5 646.167,461.5 646.5,461.5C 649.449,462.614 651.615,464.614 653,467.5C 654.572,473.977 657.238,479.977 661,485.5C 662.546,494.351 659.713,501.351 652.5,506.5C 652.5,504.5 652.5,502.5 652.5,500.5C 653.268,501.263 653.768,502.263 654,503.5C 661.327,494.54 661.327,485.54 654,476.5C 653.216,470.258 650.383,465.258 645.5,461.5 Z"/></g>
<g><path style="opacity:1" fill="#feed00" d="M 208.5,473.5 C 210.017,473.511 211.184,474.177 212,475.5C 221.151,495.626 218.817,514.293 205,531.5C 188.255,544.87 170.088,547.037 150.5,538C 145.412,534.917 140.912,531.083 137,526.5C 136.312,525.668 136.479,525.002 137.5,524.5C 153.421,516.702 169.421,516.535 185.5,524C 189.916,526.412 193.749,529.578 197,533.5C 187.75,510.915 191.584,490.915 208.5,473.5 Z"/></g>
<g><path style="opacity:1" fill="#45b37c" d="M 601.5,522.5 C 602.625,523.348 602.625,524.348 601.5,525.5C 596.026,524.982 590.693,523.816 585.5,522C 577.624,520.679 571.291,523.179 566.5,529.5C 567.602,530.176 568.602,530.842 569.5,531.5C 567.5,531.5 565.5,531.5 563.5,531.5C 569.182,521.999 577.515,518.499 588.5,521C 592.742,523.527 597.075,524.027 601.5,522.5 Z"/></g>
<g><path style="opacity:1" fill="#fafcfb" d="M 601.5,525.5 C 605.132,526.984 608.466,528.984 611.5,531.5C 615.191,536.661 616.191,542.327 614.5,548.5C 619.061,559.806 616.394,568.806 606.5,575.5C 605.828,574.051 605.161,572.718 604.5,571.5C 603.365,569.787 601.698,569.12 599.5,569.5C 600.467,565.149 598.8,562.815 594.5,562.5C 594.833,558.167 592.833,556.167 588.5,556.5C 588.833,552.167 586.833,550.167 582.5,550.5C 583.467,546.149 581.8,543.815 577.5,543.5C 577.833,539.167 575.833,537.167 571.5,537.5C 571.946,534.99 571.28,532.99 569.5,531.5C 568.602,530.842 567.602,530.176 566.5,529.5C 571.291,523.179 577.624,520.679 585.5,522C 590.693,523.816 596.026,524.982 601.5,525.5 Z"/></g>
<g><path style="opacity:1" fill="#743432" d="M 465.5,613.5 C 464.221,615.123 462.887,616.79 461.5,618.5C 463.616,620.4 464.949,622.733 465.5,625.5C 465.654,629.025 464.321,631.859 461.5,634C 445.097,639.356 429.097,645.689 413.5,653C 419.479,656.382 425.812,658.882 432.5,660.5C 432.813,663.247 432.48,665.914 431.5,668.5C 421.819,664.409 411.985,660.742 402,657.5C 392.426,660.58 383.093,664.246 374,668.5C 373.182,665.773 373.348,663.106 374.5,660.5C 380.167,658 385.833,655.5 391.5,653C 376.34,646.415 361.007,640.415 345.5,635C 342.944,633.945 341.277,632.112 340.5,629.5C 340.5,627.5 340.5,625.5 340.5,623.5C 341.048,621.606 342.048,619.94 343.5,618.5C 343.137,617.817 342.804,617.15 342.5,616.5C 341.833,615.5 341.167,614.5 340.5,613.5C 338.796,608.226 340.463,604.226 345.5,601.5C 337.607,595.416 337.607,589.416 345.5,583.5C 340.753,577.06 341.753,571.727 348.5,567.5C 347.828,559.192 351.495,554.525 359.5,553.5C 360.035,544.291 364.702,540.958 373.5,543.5C 375.854,534.824 381.188,532.324 389.5,536C 390.787,537.41 391.954,538.91 393,540.5C 394.826,532.341 399.659,529.508 407.5,532C 410.183,533.845 411.85,536.345 412.5,539.5C 416.486,534.37 421.486,533.203 427.5,536C 429.487,538.14 430.82,540.64 431.5,543.5C 440.298,540.958 444.965,544.291 445.5,553.5C 454.11,554.4 457.61,559.066 456,567.5C 463.167,571.495 464.334,576.828 459.5,583.5C 467.341,589.304 467.341,595.137 459.5,601C 461.333,602.833 463.167,604.667 465,606.5C 465.497,608.81 465.663,611.143 465.5,613.5 Z"/></g>
<g><path style="opacity:1" fill="#0a9c4f" d="M 563.5,531.5 C 565.5,531.5 567.5,531.5 569.5,531.5C 571.28,532.99 571.946,534.99 571.5,537.5C 575.833,537.167 577.833,539.167 577.5,543.5C 581.8,543.815 583.467,546.149 582.5,550.5C 586.833,550.167 588.833,552.167 588.5,556.5C 592.833,556.167 594.833,558.167 594.5,562.5C 598.8,562.815 600.467,565.149 599.5,569.5C 601.698,569.12 603.365,569.787 604.5,571.5C 604.325,573.621 604.659,575.621 605.5,577.5C 600.409,580.073 595.409,582.906 590.5,586C 582.177,589.665 573.511,590.999 564.5,590C 560.074,588.959 555.741,587.959 551.5,587C 524.964,604.431 496.298,617.265 465.5,625.5C 464.949,622.733 463.616,620.4 461.5,618.5C 462.887,616.79 464.221,615.123 465.5,613.5C 494.256,605.703 521.09,593.703 546,577.5C 545.072,564.459 548.072,552.459 555,541.5C 558.476,538.539 561.309,535.206 563.5,531.5 Z"/></g>
<g><path style="opacity:1" fill="#feec00" d="M 203.5,535.5 C 215.58,549.414 229.08,561.748 244,572.5C 245.787,576.577 247.954,580.41 250.5,584C 246.35,584.371 242.35,583.704 238.5,582C 223.054,570.055 209.054,556.555 196.5,541.5C 199.051,539.729 201.384,537.729 203.5,535.5 Z"/></g>
<g><path style="opacity:1" fill="#4ab581" d="M 611.5,531.5 C 613.686,532.823 615.186,534.823 616,537.5C 616.482,545.599 617.149,553.599 618,561.5C 616.446,568.972 612.279,574.306 605.5,577.5C 604.659,575.621 604.325,573.621 604.5,571.5C 605.161,572.718 605.828,574.051 606.5,575.5C 616.394,568.806 619.061,559.806 614.5,548.5C 616.191,542.327 615.191,536.661 611.5,531.5 Z"/></g>
<g><path style="opacity:1" fill="#feed00" d="M 250.5,525.5 C 255.041,527.202 258.541,530.202 261,534.5C 270.04,546.752 273.04,560.419 270,575.5C 264.344,597.481 250.178,609.981 227.5,613C 215.345,614.877 204.345,612.211 194.5,605C 206.614,590.116 222.281,583.783 241.5,586C 248.043,587.299 254.376,588.966 260.5,591C 246.507,577.92 241.007,561.753 244,542.5C 245.057,536.39 247.224,530.723 250.5,525.5 Z"/></g>
<g><path style="opacity:1" fill="#feec00" d="M 342.5,616.5 C 342.804,617.15 343.137,617.817 343.5,618.5C 342.048,619.94 341.048,621.606 340.5,623.5C 339.566,624.568 339.232,625.901 339.5,627.5C 315.115,621.64 291.782,612.973 269.5,601.5C 267.565,600.19 265.565,598.857 263.5,597.5C 265.333,594.5 267.167,591.5 269,588.5C 292.198,601.288 316.698,610.621 342.5,616.5 Z"/></g>
<g><path style="opacity:1" fill="#c5dee9" d="M 396.5,590.5 C 415.59,589.741 422.423,598.407 417,616.5C 411.372,623.228 404.205,625.395 395.5,623C 385.313,616.109 383.146,607.276 389,596.5C 391.478,594.361 393.978,592.361 396.5,590.5 Z"/></g>
<g><path style="opacity:1" fill="#ea963a" d="M 267.5,601.5 C 268.167,601.5 268.833,601.5 269.5,601.5C 291.782,612.973 315.115,621.64 339.5,627.5C 339.232,625.901 339.566,624.568 340.5,623.5C 340.5,625.5 340.5,627.5 340.5,629.5C 314.731,623.692 290.398,614.359 267.5,601.5 Z"/></g>
</svg>
