<svg id="visual" viewBox="0 0 1920 300" width="1920" height="300" xmlns="http://www.w3.org/2000/svg" xmlns:xlink="http://www.w3.org/1999/xlink" version="1.1"><path d="M856 0L883.8 16.7C911.7 33.3 967.3 66.7 964.5 100C961.7 133.3 900.3 166.7 920.2 200C940 233.3 1041 266.7 1091.5 283.3L1142 300L0 300L0 283.3C0 266.7 0 233.3 0 200C0 166.7 0 133.3 0 100C0 66.7 0 33.3 0 16.7L0 0Z" fill="#4098b7"></path><path d="M797 0L817.8 16.7C838.7 33.3 880.3 66.7 868 100C855.7 133.3 789.3 166.7 767.2 200C745 233.3 767 266.7 778 283.3L789 300L0 300L0 283.3C0 266.7 0 233.3 0 200C0 166.7 0 133.3 0 100C0 66.7 0 33.3 0 16.7L0 0Z" fill="#3c90af"></path><path d="M787 0L757.8 16.7C728.7 33.3 670.3 66.7 692 100C713.7 133.3 815.3 166.7 837.7 200C860 233.3 803 266.7 774.5 283.3L746 300L0 300L0 283.3C0 266.7 0 233.3 0 200C0 166.7 0 133.3 0 100C0 66.7 0 33.3 0 16.7L0 0Z" fill="#3988a6"></path><path d="M522 0L562.7 16.7C603.3 33.3 684.7 66.7 701.3 100C718 133.3 670 166.7 635.2 200C600.3 233.3 578.7 266.7 567.8 283.3L557 300L0 300L0 283.3C0 266.7 0 233.3 0 200C0 166.7 0 133.3 0 100C0 66.7 0 33.3 0 16.7L0 0Z" fill="#35819e"></path><path d="M356 0L375.3 16.7C394.7 33.3 433.3 66.7 446.5 100C459.7 133.3 447.3 166.7 443 200C438.7 233.3 442.3 266.7 444.2 283.3L446 300L0 300L0 283.3C0 266.7 0 233.3 0 200C0 166.7 0 133.3 0 100C0 66.7 0 33.3 0 16.7L0 0Z" fill="#317996"></path><path d="M530 0L510.3 16.7C490.7 33.3 451.3 66.7 448 100C444.7 133.3 477.3 166.7 472.8 200C468.3 233.3 426.7 266.7 405.8 283.3L385 300L0 300L0 283.3C0 266.7 0 233.3 0 200C0 166.7 0 133.3 0 100C0 66.7 0 33.3 0 16.7L0 0Z" fill="#2e728d"></path><path d="M370 0L372.3 16.7C374.7 33.3 379.3 66.7 352.8 100C326.3 133.3 268.7 166.7 237.2 200C205.7 233.3 200.3 266.7 197.7 283.3L195 300L0 300L0 283.3C0 266.7 0 233.3 0 200C0 166.7 0 133.3 0 100C0 66.7 0 33.3 0 16.7L0 0Z" fill="#2a6b85"></path><path d="M162 0L162.2 16.7C162.3 33.3 162.7 66.7 155.5 100C148.3 133.3 133.7 166.7 129.7 200C125.7 233.3 132.3 266.7 135.7 283.3L139 300L0 300L0 283.3C0 266.7 0 233.3 0 200C0 166.7 0 133.3 0 100C0 66.7 0 33.3 0 16.7L0 0Z" fill="#27647d"></path></svg>